<svg width="76" height="76" viewBox="0 0 76 76" fill="none" xmlns="http://www.w3.org/2000/svg">
<circle cx="38" cy="38" r="38" fill="#EBEDFF"/>
<path d="M34.625 45.5L33.5 50L32 51.5H44L42.5 50L41.375 45.5M24.5 39.5H51.5M27.5 45.5H48.5C49.2956 45.5 50.0587 45.1839 50.6213 44.6213C51.1839 44.0587 51.5 43.2956 51.5 42.5V27.5C51.5 26.7044 51.1839 25.9413 50.6213 25.3787C50.0587 24.8161 49.2956 24.5 48.5 24.5H27.5C26.7044 24.5 25.9413 24.8161 25.3787 25.3787C24.8161 25.9413 24.5 26.7044 24.5 27.5V42.5C24.5 43.2956 24.8161 44.0587 25.3787 44.6213C25.9413 45.1839 26.7044 45.5 27.5 45.5Z" stroke="#3E50F7" stroke-width="2" stroke-linecap="round" stroke-linejoin="round"/>
</svg>
