<svg width="76" height="76" viewBox="0 0 76 76" fill="none" xmlns="http://www.w3.org/2000/svg">
<circle cx="38" cy="38" r="38" fill="#EBEDFF"/>
<path d="M26 29C26 28.2044 26.3161 27.4413 26.8787 26.8787C27.4413 26.3161 28.2044 26 29 26H32C32.7956 26 33.5587 26.3161 34.1213 26.8787C34.6839 27.4413 35 28.2044 35 29V32C35 32.7956 34.6839 33.5587 34.1213 34.1213C33.5587 34.6839 32.7956 35 32 35H29C28.2044 35 27.4413 34.6839 26.8787 34.1213C26.3161 33.5587 26 32.7956 26 32V29ZM41 29C41 28.2044 41.3161 27.4413 41.8787 26.8787C42.4413 26.3161 43.2044 26 44 26H47C47.7956 26 48.5587 26.3161 49.1213 26.8787C49.6839 27.4413 50 28.2044 50 29V32C50 32.7956 49.6839 33.5587 49.1213 34.1213C48.5587 34.6839 47.7956 35 47 35H44C43.2044 35 42.4413 34.6839 41.8787 34.1213C41.3161 33.5587 41 32.7956 41 32V29ZM26 44C26 43.2044 26.3161 42.4413 26.8787 41.8787C27.4413 41.3161 28.2044 41 29 41H32C32.7956 41 33.5587 41.3161 34.1213 41.8787C34.6839 42.4413 35 43.2044 35 44V47C35 47.7956 34.6839 48.5587 34.1213 49.1213C33.5587 49.6839 32.7956 50 32 50H29C28.2044 50 27.4413 49.6839 26.8787 49.1213C26.3161 48.5587 26 47.7956 26 47V44ZM41 44C41 43.2044 41.3161 42.4413 41.8787 41.8787C42.4413 41.3161 43.2044 41 44 41H47C47.7956 41 48.5587 41.3161 49.1213 41.8787C49.6839 42.4413 50 43.2044 50 44V47C50 47.7956 49.6839 48.5587 49.1213 49.1213C48.5587 49.6839 47.7956 50 47 50H44C43.2044 50 42.4413 49.6839 41.8787 49.1213C41.3161 48.5587 41 47.7956 41 47V44Z" stroke="#3E50F7" stroke-width="2" stroke-linecap="round" stroke-linejoin="round"/>
</svg>
