<svg width="76" height="76" viewBox="0 0 76 76" fill="none" xmlns="http://www.w3.org/2000/svg">
<circle cx="38" cy="38" r="38" fill="#EBEDFF"/>
<path d="M28.9999 27.2C28.9999 26.7226 28.8103 26.2648 28.4727 25.9272C28.1352 25.5897 27.6773 25.4 27.1999 25.4C26.7225 25.4 26.2647 25.5897 25.9271 25.9272C25.5896 26.2648 25.3999 26.7226 25.3999 27.2V40.2824C24.8527 40.5984 24.3983 41.0529 24.0824 41.6001C23.7664 42.1474 23.6001 42.7681 23.6001 43.4C23.6001 44.0319 23.7664 44.6527 24.0824 45.1999C24.3983 45.7472 24.8527 46.2016 25.3999 46.5176V48.8C25.3999 49.2774 25.5896 49.7353 25.9271 50.0728C26.2647 50.4104 26.7225 50.6 27.1999 50.6C27.6773 50.6 28.1352 50.4104 28.4727 50.0728C28.8103 49.7353 28.9999 49.2774 28.9999 48.8V46.5176C29.5472 46.2016 30.0016 45.7472 30.3175 45.1999C30.6335 44.6527 30.7998 44.0319 30.7998 43.4C30.7998 42.7681 30.6335 42.1474 30.3175 41.6001C30.0016 41.0529 29.5472 40.5984 28.9999 40.2824V27.2ZM39.7999 27.2C39.7999 26.7226 39.6103 26.2648 39.2727 25.9272C38.9352 25.5897 38.4773 25.4 37.9999 25.4C37.5226 25.4 37.0647 25.5897 36.7271 25.9272C36.3896 26.2648 36.1999 26.7226 36.1999 27.2V29.4824C35.6527 29.7984 35.1983 30.2529 34.8824 30.8001C34.5664 31.3474 34.4001 31.9681 34.4001 32.6C34.4001 33.2319 34.5664 33.8527 34.8824 34.3999C35.1983 34.9472 35.6527 35.4016 36.1999 35.7176V48.8C36.1999 49.2774 36.3896 49.7353 36.7271 50.0728C37.0647 50.4104 37.5226 50.6 37.9999 50.6C38.4773 50.6 38.9352 50.4104 39.2727 50.0728C39.6103 49.7353 39.7999 49.2774 39.7999 48.8V35.7176C40.3472 35.4016 40.8016 34.9472 41.1175 34.3999C41.4335 33.8527 41.5998 33.2319 41.5998 32.6C41.5998 31.9681 41.4335 31.3474 41.1175 30.8001C40.8016 30.2529 40.3472 29.7984 39.7999 29.4824V27.2ZM48.7999 25.4C49.2773 25.4 49.7352 25.5897 50.0727 25.9272C50.4103 26.2648 50.5999 26.7226 50.5999 27.2V40.2824C51.1472 40.5984 51.6016 41.0529 51.9175 41.6001C52.2335 42.1474 52.3998 42.7681 52.3998 43.4C52.3998 44.0319 52.2335 44.6527 51.9175 45.1999C51.6016 45.7472 51.1472 46.2016 50.5999 46.5176V48.8C50.5999 49.2774 50.4103 49.7353 50.0727 50.0728C49.7352 50.4104 49.2773 50.6 48.7999 50.6C48.3226 50.6 47.8647 50.4104 47.5271 50.0728C47.1896 49.7353 46.9999 49.2774 46.9999 48.8V46.5176C46.4527 46.2016 45.9983 45.7472 45.6824 45.1999C45.3664 44.6527 45.2001 44.0319 45.2001 43.4C45.2001 42.7681 45.3664 42.1474 45.6824 41.6001C45.9983 41.0529 46.4527 40.5984 46.9999 40.2824V27.2C46.9999 26.7226 47.1896 26.2648 47.5271 25.9272C47.8647 25.5897 48.3226 25.4 48.7999 25.4Z" fill="#3E50F7"/>
</svg>
