<svg width="72" height="72" viewBox="0 0 72 72" fill="none" xmlns="http://www.w3.org/2000/svg">
<g clip-path="url(#clip0_20_1191)">
<path d="M54.9475 17.0524L37.895 15.1577L17.0528 17.0524L15.1578 35.9999L17.0525 54.9474L36 57.3159L54.9475 54.9474L56.8422 35.5265L54.9475 17.0524Z" fill="white"/>
<path d="M24.8259 46.4494C23.4097 45.4925 22.4291 44.0953 21.8937 42.2478L25.1813 40.8931C25.4797 42.03 26.0006 42.9109 26.7444 43.5362C27.4835 44.1616 28.3835 44.4694 29.435 44.4694C30.5103 44.4694 31.4341 44.1425 32.2059 43.4887C32.9778 42.835 33.3666 42.0012 33.3666 40.9925C33.3666 39.96 32.9591 39.1165 32.1444 38.4631C31.3297 37.8097 30.3066 37.4825 29.0844 37.4825H27.185V34.2285H28.89C29.9415 34.2285 30.8275 33.9444 31.5475 33.376C32.2675 32.8075 32.6275 32.0306 32.6275 31.0406C32.6275 30.1597 32.3053 29.4585 31.6613 28.9329C31.0172 28.4073 30.2022 28.1419 29.2122 28.1419C28.2459 28.1419 27.4784 28.3979 26.91 28.9141C26.3415 29.4304 25.9293 30.0651 25.6691 30.8135L22.415 29.4588C22.8459 28.2366 23.6372 27.1566 24.7975 26.2235C25.9581 25.2904 27.4406 24.8213 29.2406 24.8213C30.5715 24.8213 31.77 25.0773 32.8313 25.5935C33.8922 26.1097 34.7259 26.8251 35.3275 27.7344C35.9291 28.6485 36.2275 29.6719 36.2275 30.8085C36.2275 31.9691 35.9481 32.9494 35.3891 33.7547C34.83 34.56 34.1431 35.1756 33.3284 35.6069V35.8009C34.4037 36.2509 35.28 36.9378 35.9715 37.8616C36.6584 38.7853 37.004 39.8891 37.004 41.1775C37.004 42.466 36.6771 43.6169 36.0234 44.626C35.3696 45.635 34.4649 46.4307 33.3187 47.0085C32.1678 47.5863 30.8747 47.88 29.4393 47.88C27.7769 47.8847 26.2422 47.4063 24.8259 46.4494Z" fill="#1A73E8"/>
<path d="M45 30.1358L41.4094 32.7458L39.6047 30.008L46.08 25.3374H48.5622V47.3683H45V30.1358Z" fill="#1A73E8"/>
<path d="M54.9475 72L72 54.9476L63.4737 51.1582L54.9475 54.9476L51.1581 63.4738L54.9475 72Z" fill="#EA4335"/>
<path d="M13.2631 63.474L17.0525 72.0002H54.9472V54.9478H17.0525L13.2631 63.474Z" fill="#34A853"/>
<path d="M5.68404 0C2.54376 0 0 2.54376 0 5.68404V54.9472L8.52624 58.7365L17.0525 54.9472V17.0525H54.9472L58.7365 8.52624L54.9475 0H5.68404Z" fill="#4285F4"/>
<path d="M0 54.9478V66.3162C0 69.4568 2.54376 72.0002 5.68404 72.0002H17.0525V54.9478H0Z" fill="#188038"/>
<path d="M54.9475 17.0525V54.9472H72V17.0525L63.4737 13.2632L54.9475 17.0525Z" fill="#FBBC04"/>
<path d="M72 17.0525V5.68404C72 2.5434 69.4562 0 66.3159 0H54.9475V17.0525H72Z" fill="#1967D2"/>
</g>
<defs>
<clipPath id="clip0_20_1191">
<rect width="72" height="72" fill="white"/>
</clipPath>
</defs>
</svg>
