<svg width="76" height="76" viewBox="0 0 76 76" fill="none" xmlns="http://www.w3.org/2000/svg">
<circle cx="38" cy="38" r="38" fill="#EBEDFF"/>
<path d="M38 31.5V37.5L42.5 42M51.5 37.5C51.5 39.2728 51.1508 41.0283 50.4724 42.6662C49.7939 44.3041 48.7995 45.7923 47.5459 47.0459C46.2923 48.2995 44.8041 49.2939 43.1662 49.9724C41.5283 50.6508 39.7728 51 38 51C36.2272 51 34.4717 50.6508 32.8338 49.9724C31.1959 49.2939 29.7076 48.2995 28.4541 47.0459C27.2005 45.7923 26.2061 44.3041 25.5276 42.6662C24.8492 41.0283 24.5 39.2728 24.5 37.5C24.5 33.9196 25.9223 30.4858 28.4541 27.9541C30.9858 25.4223 34.4196 24 38 24C41.5804 24 45.0142 25.4223 47.5459 27.9541C50.0777 30.4858 51.5 33.9196 51.5 37.5Z" stroke="#3E50F7" stroke-width="2" stroke-linecap="round" stroke-linejoin="round"/>
</svg>
