<svg width="76" height="76" viewBox="0 0 76 76" fill="none" xmlns="http://www.w3.org/2000/svg">
<circle cx="38" cy="38" r="38" fill="#EBEDFF"/>
<path d="M45.5 40.5V49.5M41 45H50M29 34.5H32C32.7956 34.5 33.5587 34.1839 34.1213 33.6213C34.6839 33.0587 35 32.2956 35 31.5V28.5C35 27.7044 34.6839 26.9413 34.1213 26.3787C33.5587 25.8161 32.7956 25.5 32 25.5H29C28.2044 25.5 27.4413 25.8161 26.8787 26.3787C26.3161 26.9413 26 27.7044 26 28.5V31.5C26 32.2956 26.3161 33.0587 26.8787 33.6213C27.4413 34.1839 28.2044 34.5 29 34.5ZM44 34.5H47C47.7956 34.5 48.5587 34.1839 49.1213 33.6213C49.6839 33.0587 50 32.2956 50 31.5V28.5C50 27.7044 49.6839 26.9413 49.1213 26.3787C48.5587 25.8161 47.7956 25.5 47 25.5H44C43.2044 25.5 42.4413 25.8161 41.8787 26.3787C41.3161 26.9413 41 27.7044 41 28.5V31.5C41 32.2956 41.3161 33.0587 41.8787 33.6213C42.4413 34.1839 43.2044 34.5 44 34.5ZM29 49.5H32C32.7956 49.5 33.5587 49.1839 34.1213 48.6213C34.6839 48.0587 35 47.2956 35 46.5V43.5C35 42.7044 34.6839 41.9413 34.1213 41.3787C33.5587 40.8161 32.7956 40.5 32 40.5H29C28.2044 40.5 27.4413 40.8161 26.8787 41.3787C26.3161 41.9413 26 42.7044 26 43.5V46.5C26 47.2956 26.3161 48.0587 26.8787 48.6213C27.4413 49.1839 28.2044 49.5 29 49.5Z" stroke="#3E50F7" stroke-width="2" stroke-linecap="round" stroke-linejoin="round"/>
</svg>
