<svg width="76" height="76" viewBox="0 0 76 76" fill="none" xmlns="http://www.w3.org/2000/svg">
<circle cx="38" cy="38" r="38" fill="#EBEDFF"/>
<path d="M32 30V24M44 30V24M30.5 36H45.5M27.5 51H48.5C49.2956 51 50.0587 50.6839 50.6213 50.1213C51.1839 49.5587 51.5 48.7956 51.5 48V30C51.5 29.2044 51.1839 28.4413 50.6213 27.8787C50.0587 27.3161 49.2956 27 48.5 27H27.5C26.7044 27 25.9413 27.3161 25.3787 27.8787C24.8161 28.4413 24.5 29.2044 24.5 30V48C24.5 48.7956 24.8161 49.5587 25.3787 50.1213C25.9413 50.6839 26.7044 51 27.5 51Z" stroke="#3E50F7" stroke-width="2" stroke-linecap="round" stroke-linejoin="round"/>
</svg>
