<svg width="76" height="76" viewBox="0 0 76 76" fill="none" xmlns="http://www.w3.org/2000/svg">
<circle cx="38" cy="38" r="38" fill="#EBEDFF"/>
<path fill-rule="evenodd" clip-rule="evenodd" d="M25.4 27.1999C25.4 26.7225 25.5897 26.2647 25.9272 25.9271C26.2648 25.5895 26.7226 25.3999 27.2 25.3999H48.8C49.2774 25.3999 49.7353 25.5895 50.0728 25.9271C50.4104 26.2647 50.6 26.7225 50.6 27.1999C50.6 27.6773 50.4104 28.1351 50.0728 28.4727C49.7353 28.8103 49.2774 28.9999 48.8 28.9999H27.2C26.7226 28.9999 26.2648 28.8103 25.9272 28.4727C25.5897 28.1351 25.4 27.6773 25.4 27.1999ZM25.4 34.3999C25.4 33.9225 25.5897 33.4647 25.9272 33.1271C26.2648 32.7895 26.7226 32.5999 27.2 32.5999H48.8C49.2774 32.5999 49.7353 32.7895 50.0728 33.1271C50.4104 33.4647 50.6 33.9225 50.6 34.3999C50.6 34.8773 50.4104 35.3351 50.0728 35.6727C49.7353 36.0103 49.2774 36.1999 48.8 36.1999H27.2C26.7226 36.1999 26.2648 36.0103 25.9272 35.6727C25.5897 35.3351 25.4 34.8773 25.4 34.3999ZM25.4 41.5999C25.4 41.1225 25.5897 40.6647 25.9272 40.3271C26.2648 39.9895 26.7226 39.7999 27.2 39.7999H48.8C49.2774 39.7999 49.7353 39.9895 50.0728 40.3271C50.4104 40.6647 50.6 41.1225 50.6 41.5999C50.6 42.0773 50.4104 42.5351 50.0728 42.8727C49.7353 43.2103 49.2774 43.3999 48.8 43.3999H27.2C26.7226 43.3999 26.2648 43.2103 25.9272 42.8727C25.5897 42.5351 25.4 42.0773 25.4 41.5999ZM25.4 48.7999C25.4 48.3225 25.5897 47.8647 25.9272 47.5271C26.2648 47.1895 26.7226 46.9999 27.2 46.9999H48.8C49.2774 46.9999 49.7353 47.1895 50.0728 47.5271C50.4104 47.8647 50.6 48.3225 50.6 48.7999C50.6 49.2773 50.4104 49.7351 50.0728 50.0727C49.7353 50.4103 49.2774 50.5999 48.8 50.5999H27.2C26.7226 50.5999 26.2648 50.4103 25.9272 50.0727C25.5897 49.7351 25.4 49.2773 25.4 48.7999Z" fill="#3E50F7"/>
</svg>
