<svg width="77" height="106" viewBox="0 0 77 106" fill="none" xmlns="http://www.w3.org/2000/svg">
<circle cx="38.5" cy="68" r="38" fill="#3E50F7"/>
<path fill-rule="evenodd" clip-rule="evenodd" d="M25.9 57.1999C25.9 56.7225 26.0897 56.2647 26.4272 55.9271C26.7648 55.5895 27.2226 55.3999 27.7 55.3999H49.3C49.7774 55.3999 50.2353 55.5895 50.5728 55.9271C50.9104 56.2647 51.1 56.7225 51.1 57.1999C51.1 57.6773 50.9104 58.1351 50.5728 58.4727C50.2353 58.8103 49.7774 58.9999 49.3 58.9999H27.7C27.2226 58.9999 26.7648 58.8103 26.4272 58.4727C26.0897 58.1351 25.9 57.6773 25.9 57.1999ZM25.9 64.3999C25.9 63.9225 26.0897 63.4647 26.4272 63.1271C26.7648 62.7895 27.2226 62.5999 27.7 62.5999H49.3C49.7774 62.5999 50.2353 62.7895 50.5728 63.1271C50.9104 63.4647 51.1 63.9225 51.1 64.3999C51.1 64.8773 50.9104 65.3351 50.5728 65.6727C50.2353 66.0103 49.7774 66.1999 49.3 66.1999H27.7C27.2226 66.1999 26.7648 66.0103 26.4272 65.6727C26.0897 65.3351 25.9 64.8773 25.9 64.3999ZM25.9 71.5999C25.9 71.1225 26.0897 70.6647 26.4272 70.3271C26.7648 69.9895 27.2226 69.7999 27.7 69.7999H49.3C49.7774 69.7999 50.2353 69.9895 50.5728 70.3271C50.9104 70.6647 51.1 71.1225 51.1 71.5999C51.1 72.0773 50.9104 72.5351 50.5728 72.8727C50.2353 73.2103 49.7774 73.3999 49.3 73.3999H27.7C27.2226 73.3999 26.7648 73.2103 26.4272 72.8727C26.0897 72.5351 25.9 72.0773 25.9 71.5999ZM25.9 78.7999C25.9 78.3225 26.0897 77.8647 26.4272 77.5271C26.7648 77.1895 27.2226 76.9999 27.7 76.9999H49.3C49.7774 76.9999 50.2353 77.1895 50.5728 77.5271C50.9104 77.8647 51.1 78.3225 51.1 78.7999C51.1 79.2773 50.9104 79.7351 50.5728 80.0727C50.2353 80.4103 49.7774 80.5999 49.3 80.5999H27.7C27.2226 80.5999 26.7648 80.4103 26.4272 80.0727C26.0897 79.7351 25.9 79.2773 25.9 78.7999Z" fill="white"/>
<rect x="18" y="1" width="42" height="42" rx="21" fill="#3E50F7"/>
<rect x="18" y="1" width="42" height="42" rx="21" stroke="white" stroke-width="2"/>
<path d="M41.0916 16.3636V28H38.6314V18.6989H38.5632L35.8984 20.3693V18.1875L38.7791 16.3636H41.0916Z" fill="white"/>
</svg>
