<svg width="77" height="106" viewBox="0 0 77 106" fill="none" xmlns="http://www.w3.org/2000/svg">
<circle cx="38.5" cy="68" r="38" fill="#3E50F7"/>
<path d="M32.5 60V54M44.5 60V54M31 66H46M28 81H49C49.7956 81 50.5587 80.6839 51.1213 80.1213C51.6839 79.5587 52 78.7956 52 78V60C52 59.2044 51.6839 58.4413 51.1213 57.8787C50.5587 57.3161 49.7956 57 49 57H28C27.2044 57 26.4413 57.3161 25.8787 57.8787C25.3161 58.4413 25 59.2044 25 60V78C25 78.7956 25.3161 79.5587 25.8787 80.1213C26.4413 80.6839 27.2044 81 28 81Z" stroke="white" stroke-width="2" stroke-linecap="round" stroke-linejoin="round"/>
<rect x="18" y="1" width="42" height="42" rx="21" fill="#3E50F7"/>
<rect x="18" y="1" width="42" height="42" rx="21" stroke="white" stroke-width="2"/>
<path d="M38.9709 28.1591C38.1224 28.1591 37.3667 28.0133 36.7038 27.7216C36.0447 27.4261 35.5239 27.0208 35.1413 26.5057C34.7625 25.9867 34.5675 25.3883 34.5561 24.7102H37.0334C37.0485 24.9943 37.1413 25.2443 37.3118 25.4602C37.486 25.6723 37.7171 25.8371 38.005 25.9545C38.2929 26.072 38.6167 26.1307 38.9766 26.1307C39.3516 26.1307 39.683 26.0644 39.9709 25.9318C40.2588 25.7992 40.4841 25.6155 40.647 25.3807C40.8099 25.1458 40.8913 24.875 40.8913 24.5682C40.8913 24.2576 40.8042 23.983 40.63 23.7443C40.4595 23.5019 40.2133 23.3125 39.8913 23.1761C39.5732 23.0398 39.1944 22.9716 38.755 22.9716H37.6697V21.1648H38.755C39.1262 21.1648 39.4538 21.1004 39.7379 20.9716C40.0258 20.8428 40.2493 20.6648 40.4084 20.4375C40.5675 20.2064 40.647 19.9375 40.647 19.6307C40.647 19.339 40.5769 19.0833 40.4368 18.8636C40.3004 18.6402 40.1072 18.4659 39.8572 18.3409C39.611 18.2159 39.3232 18.1534 38.9936 18.1534C38.6603 18.1534 38.3554 18.214 38.0788 18.3352C37.8023 18.4527 37.5807 18.6212 37.4141 18.8409C37.2474 19.0606 37.1584 19.3182 37.147 19.6136H34.7891C34.8004 18.9432 34.9917 18.3523 35.3629 17.8409C35.7341 17.3295 36.2341 16.9299 36.8629 16.642C37.4955 16.3504 38.2095 16.2045 39.005 16.2045C39.808 16.2045 40.5107 16.3504 41.1129 16.642C41.7152 16.9337 42.183 17.3277 42.5163 17.8239C42.8535 18.3163 43.0201 18.8693 43.0163 19.483C43.0201 20.1345 42.8175 20.678 42.4084 21.1136C42.0031 21.5492 41.4747 21.8258 40.8232 21.9432V22.0341C41.6792 22.1439 42.3307 22.4413 42.7777 22.9261C43.2285 23.4072 43.4519 24.0095 43.4482 24.733C43.4519 25.3958 43.2607 25.9848 42.8743 26.5C42.4917 27.0152 41.9633 27.4205 41.2891 27.7159C40.6148 28.0114 39.8421 28.1591 38.9709 28.1591Z" fill="white"/>
</svg>
