<svg width="76" height="106" viewBox="0 0 76 106" fill="none" xmlns="http://www.w3.org/2000/svg">
<circle cx="38" cy="68" r="38" fill="#3E50F7"/>
<path d="M38 61.5V67.5L42.5 72M51.5 67.5C51.5 69.2728 51.1508 71.0283 50.4724 72.6662C49.7939 74.3041 48.7995 75.7923 47.5459 77.0459C46.2923 78.2995 44.8041 79.2939 43.1662 79.9724C41.5283 80.6508 39.7728 81 38 81C36.2272 81 34.4717 80.6508 32.8338 79.9724C31.1959 79.2939 29.7076 78.2995 28.4541 77.0459C27.2005 75.7923 26.2061 74.3041 25.5276 72.6662C24.8492 71.0283 24.5 69.2728 24.5 67.5C24.5 63.9196 25.9223 60.4858 28.4541 57.9541C30.9858 55.4223 34.4196 54 38 54C41.5804 54 45.0142 55.4223 47.5459 57.9541C50.0777 60.4858 51.5 63.9196 51.5 67.5Z" stroke="white" stroke-width="2" stroke-linecap="round" stroke-linejoin="round"/>
<rect x="17" y="1" width="42" height="42" rx="21" fill="#3E50F7"/>
<rect x="17" y="1" width="42" height="42" rx="21" stroke="white" stroke-width="2"/>
<path d="M33.9041 28V26.2273L38.0462 22.392C38.3984 22.0511 38.6939 21.7443 38.9325 21.4716C39.175 21.1989 39.3587 20.9318 39.4837 20.6705C39.6087 20.4053 39.6712 20.1193 39.6712 19.8125C39.6712 19.4716 39.5935 19.178 39.4382 18.9318C39.2829 18.6818 39.0708 18.4905 38.8018 18.358C38.5329 18.2216 38.228 18.1534 37.8871 18.1534C37.531 18.1534 37.2204 18.2254 36.9553 18.3693C36.6901 18.5133 36.4856 18.7197 36.3416 18.9886C36.1977 19.2576 36.1257 19.5777 36.1257 19.9489H33.7905C33.7905 19.1875 33.9628 18.5265 34.3075 17.9659C34.6522 17.4053 35.1352 16.9716 35.7564 16.6648C36.3776 16.358 37.0935 16.2045 37.9041 16.2045C38.7375 16.2045 39.4628 16.3523 40.0803 16.6477C40.7015 16.9394 41.1844 17.3447 41.5291 17.8636C41.8738 18.3826 42.0462 18.9773 42.0462 19.6477C42.0462 20.0871 41.959 20.5208 41.7848 20.9489C41.6143 21.3769 41.3094 21.8523 40.87 22.375C40.4306 22.8939 39.8113 23.517 39.0121 24.2443L37.3132 25.9091V25.9886H42.1996V28H33.9041Z" fill="white"/>
</svg>
