<svg width="76" height="106" viewBox="0 0 76 106" fill="none" xmlns="http://www.w3.org/2000/svg">
<circle cx="38" cy="68" r="38" fill="#3E50F7"/>
<path d="M45.5 70.5V79.5M41 75H50M29 64.5H32C32.7956 64.5 33.5587 64.1839 34.1213 63.6213C34.6839 63.0587 35 62.2956 35 61.5V58.5C35 57.7044 34.6839 56.9413 34.1213 56.3787C33.5587 55.8161 32.7956 55.5 32 55.5H29C28.2044 55.5 27.4413 55.8161 26.8787 56.3787C26.3161 56.9413 26 57.7044 26 58.5V61.5C26 62.2956 26.3161 63.0587 26.8787 63.6213C27.4413 64.1839 28.2044 64.5 29 64.5ZM44 64.5H47C47.7956 64.5 48.5587 64.1839 49.1213 63.6213C49.6839 63.0587 50 62.2956 50 61.5V58.5C50 57.7044 49.6839 56.9413 49.1213 56.3787C48.5587 55.8161 47.7956 55.5 47 55.5H44C43.2044 55.5 42.4413 55.8161 41.8787 56.3787C41.3161 56.9413 41 57.7044 41 58.5V61.5C41 62.2956 41.3161 63.0587 41.8787 63.6213C42.4413 64.1839 43.2044 64.5 44 64.5ZM29 79.5H32C32.7956 79.5 33.5587 79.1839 34.1213 78.6213C34.6839 78.0587 35 77.2956 35 76.5V73.5C35 72.7044 34.6839 71.9413 34.1213 71.3787C33.5587 70.8161 32.7956 70.5 32 70.5H29C28.2044 70.5 27.4413 70.8161 26.8787 71.3787C26.3161 71.9413 26 72.7044 26 73.5V76.5C26 77.2956 26.3161 78.0587 26.8787 78.6213C27.4413 79.1839 28.2044 79.5 29 79.5Z" stroke="white" stroke-width="2" stroke-linecap="round" stroke-linejoin="round"/>
<rect x="18" y="1" width="42" height="42" rx="21" fill="#3E50F7"/>
<rect x="18" y="1" width="42" height="42" rx="21" stroke="white" stroke-width="2"/>
<path d="M34.3452 25.9545V24.017L39.2031 16.3636H40.8736V19.0455H39.8849L36.8224 23.892V23.983H43.7259V25.9545H34.3452ZM39.9304 28V25.3636L39.9759 24.5057V16.3636H42.2827V28H39.9304Z" fill="white"/>
</svg>
