<svg width="22" height="17" viewBox="0 0 22 17" fill="none" xmlns="http://www.w3.org/2000/svg">
<path d="M0 16.2045V11.5682C0 10.2349 0.25 8.84849 0.75 7.40909C1.26515 5.95455 1.96212 4.58333 2.84091 3.29546C3.73485 1.99243 4.73485 0.893941 5.84091 0L9.65909 2.47727C8.76515 3.82576 8.01515 5.23485 7.40909 6.70455C6.81818 8.15909 6.5303 9.76515 6.54545 11.5227V16.2045H0ZM11.5227 16.2045V11.5682C11.5227 10.2349 11.7727 8.84849 12.2727 7.40909C12.7879 5.95455 13.4848 4.58333 14.3636 3.29546C15.2576 1.99243 16.2576 0.893941 17.3636 0L21.1818 2.47727C20.2879 3.82576 19.5379 5.23485 18.9318 6.70455C18.3409 8.15909 18.053 9.76515 18.0682 11.5227V16.2045H11.5227Z" fill="#DDDDDD"/>
</svg>
