<svg width="72" height="72" viewBox="0 0 72 72" fill="none" xmlns="http://www.w3.org/2000/svg">
<g clip-path="url(#clip0_20_1237)">
<path d="M15.4204 45.3546C15.4204 49.4931 12.0755 52.838 7.93696 52.838C3.79837 52.838 0.453491 49.4931 0.453491 45.3546C0.453491 41.216 3.79837 37.8711 7.93696 37.8711H15.4204V45.3546ZM19.1622 45.3546C19.1622 41.216 22.507 37.8711 26.6456 37.8711C30.7842 37.8711 34.1291 41.216 34.1291 45.3546V64.0632C34.1291 68.2018 30.7842 71.5467 26.6456 71.5467C22.507 71.5467 19.1622 68.2018 19.1622 64.0632V45.3546Z" fill="#E01E5A"/>
<path d="M26.6457 15.3073C22.5071 15.3073 19.1622 11.9624 19.1622 7.8238C19.1622 3.68521 22.5071 0.340332 26.6457 0.340332C30.7843 0.340332 34.1291 3.68521 34.1291 7.8238V15.3073H26.6457ZM26.6457 19.1057C30.7843 19.1057 34.1291 22.4506 34.1291 26.5892C34.1291 30.7277 30.7843 34.0726 26.6457 34.0726H7.88032C3.74173 34.0726 0.396851 30.7277 0.396851 26.5892C0.396851 22.4506 3.74173 19.1057 7.88032 19.1057H26.6457Z" fill="#36C5F0"/>
<path d="M56.6363 26.5892C56.6363 22.4506 59.9812 19.1057 64.1197 19.1057C68.2583 19.1057 71.6032 22.4506 71.6032 26.5892C71.6032 30.7277 68.2583 34.0726 64.1197 34.0726H56.6363V26.5892ZM52.8945 26.5892C52.8945 30.7277 49.5497 34.0726 45.4111 34.0726C41.2725 34.0726 37.9276 30.7277 37.9276 26.5892V7.8238C37.9276 3.68521 41.2725 0.340332 45.4111 0.340332C49.5497 0.340332 52.8945 3.68521 52.8945 7.8238V26.5892Z" fill="#2EB67D"/>
<path d="M45.4111 56.5798C49.5497 56.5798 52.8945 59.9246 52.8945 64.0632C52.8945 68.2018 49.5497 71.5467 45.4111 71.5467C41.2725 71.5467 37.9276 68.2018 37.9276 64.0632V56.5798H45.4111ZM45.4111 52.838C41.2725 52.838 37.9276 49.4931 37.9276 45.3546C37.9276 41.216 41.2725 37.8711 45.4111 37.8711H64.1764C68.315 37.8711 71.6599 41.216 71.6599 45.3546C71.6599 49.4931 68.315 52.838 64.1764 52.838H45.4111Z" fill="#ECB22E"/>
</g>
<defs>
<clipPath id="clip0_20_1237">
<rect width="72" height="72" fill="white"/>
</clipPath>
</defs>
</svg>
