<svg width="78" height="72" viewBox="0 0 78 72" fill="none" xmlns="http://www.w3.org/2000/svg">
<g clip-path="url(#clip0_20_1212)">
<path d="M54.2084 27H74.0976C75.9767 27 77.5 28.5312 77.5 30.42V48.6306C77.5 55.5725 71.9015 61.2 64.9955 61.2H64.9364C58.0304 61.201 52.4312 55.5743 52.4302 48.6324C52.4302 48.6318 52.4302 48.6312 52.4302 48.6306V28.7874C52.4302 27.8002 53.2263 27 54.2084 27Z" fill="#5059C9"/>
<path d="M67.6512 23.4002C72.1015 23.4002 75.7093 19.7737 75.7093 15.3002C75.7093 10.8267 72.1015 7.2002 67.6512 7.2002C63.2008 7.2002 59.593 10.8267 59.593 15.3002C59.593 19.7737 63.2008 23.4002 67.6512 23.4002Z" fill="#5059C9"/>
<path d="M42.5814 23.4C49.0098 23.4 54.221 18.1618 54.221 11.7C54.221 5.23827 49.0098 0 42.5814 0C36.1531 0 30.9419 5.23827 30.9419 11.7C30.9419 18.1618 36.1531 23.4 42.5814 23.4Z" fill="#7B83EB"/>
<path d="M58.1014 27H25.2707C23.414 27.0462 21.9453 28.595 21.9884 30.4614V51.2316C21.7291 62.4316 30.5442 71.7259 41.6861 72C52.8279 71.7259 61.643 62.4316 61.3837 51.2316V30.4614C61.4268 28.595 59.958 27.0462 58.1014 27Z" fill="#7B83EB"/>
<path opacity="0.1" d="M43.4768 27V56.106C43.4678 57.4407 42.6632 58.6398 41.4354 59.148C41.0444 59.3142 40.6243 59.3999 40.1998 59.4H23.5642C23.3314 58.806 23.1165 58.212 22.9374 57.6C22.3106 55.5346 21.9908 53.3874 21.9884 51.228V30.456C21.9453 28.5926 23.4116 27.0462 25.2653 27H43.4768Z" fill="black"/>
<path opacity="0.2" d="M41.6861 27V57.906C41.686 58.3327 41.6007 58.755 41.4354 59.148C40.9298 60.3822 39.7369 61.1911 38.4091 61.2H24.4058C24.1014 60.606 23.8149 60.012 23.5642 59.4C23.3135 58.788 23.1165 58.212 22.9374 57.6C22.3106 55.5346 21.9908 53.3874 21.9884 51.228V30.456C21.9453 28.5926 23.4116 27.0462 25.2653 27H41.6861Z" fill="black"/>
<path opacity="0.2" d="M41.686 27V54.306C41.6724 56.1195 40.2132 57.5863 38.4091 57.6H22.9374C22.3106 55.5346 21.9908 53.3874 21.9884 51.228V30.456C21.9453 28.5926 23.4116 27.0462 25.2653 27H41.686Z" fill="black"/>
<path opacity="0.2" d="M39.8953 27V54.306C39.8817 56.1195 38.4225 57.5863 36.6183 57.6H22.9374C22.3106 55.5346 21.9908 53.3874 21.9884 51.228V30.456C21.9453 28.5926 23.4116 27.0462 25.2653 27H39.8953Z" fill="black"/>
<path opacity="0.1" d="M43.4767 17.6939V23.3639C43.1723 23.3819 42.8858 23.3999 42.5814 23.3999C42.277 23.3999 41.9905 23.3819 41.686 23.3639C41.0816 23.3236 40.4821 23.2272 39.8953 23.0759C36.2692 22.2127 33.2734 19.6564 31.8372 16.1999C31.5901 15.6194 31.3982 15.0167 31.2642 14.3999H40.1997C42.0067 14.4068 43.4699 15.8775 43.4767 17.6939Z" fill="black"/>
<path opacity="0.2" d="M41.6861 19.4942V23.3642C41.0817 23.3239 40.4822 23.2275 39.8954 23.0762C36.2692 22.213 33.2734 19.6567 31.8373 16.2002H38.4091C40.2161 16.2071 41.6792 17.6778 41.6861 19.4942Z" fill="black"/>
<path opacity="0.2" d="M41.6861 19.4942V23.3642C41.0817 23.3239 40.4822 23.2275 39.8954 23.0762C36.2692 22.213 33.2734 19.6567 31.8373 16.2002H38.4091C40.2161 16.2071 41.6792 17.6778 41.6861 19.4942Z" fill="black"/>
<path opacity="0.2" d="M39.8953 19.4942V23.0762C36.2691 22.213 33.2733 19.6567 31.8372 16.2002H36.6183C38.4253 16.2071 39.8884 17.6779 39.8953 19.4942Z" fill="black"/>
<path d="M3.78233 16.2002H36.613C38.4258 16.2002 39.8953 17.6774 39.8953 19.4996V52.5008C39.8953 54.323 38.4257 55.8002 36.613 55.8002H3.78233C1.96954 55.8002 0.5 54.323 0.5 52.5008V19.4996C0.5 17.6774 1.96957 16.2002 3.78233 16.2002Z" fill="url(#paint0_linear_20_1212)"/>
<path d="M28.836 28.7602H22.273V46.7242H18.0918V28.7602H11.5593V25.2754H28.836V28.7602Z" fill="white"/>
</g>
<defs>
<linearGradient id="paint0_linear_20_1212" x1="7.34377" y1="13.6221" x2="33.2519" y2="58.262" gradientUnits="userSpaceOnUse">
<stop stop-color="#5A62C3"/>
<stop offset="0.5" stop-color="#4D55BD"/>
<stop offset="1" stop-color="#3940AB"/>
</linearGradient>
<clipPath id="clip0_20_1212">
<rect width="77" height="72" fill="white" transform="translate(0.5)"/>
</clipPath>
</defs>
</svg>
