<svg width="144" height="72" viewBox="0 0 144 72" fill="none" xmlns="http://www.w3.org/2000/svg">
<path d="M0 54.9367L14.9531 31.77H1.76207C1.63979 31.0439 1.59087 30.3072 1.61605 29.5713C1.59224 28.8354 1.64115 28.0989 1.76207 27.3725H23.0193L23.3001 28.1055L8.1982 51.2722H22.2892C22.4115 51.9983 22.4604 52.7349 22.4352 53.4709C22.465 54.1585 22.416 54.8472 22.2892 55.5236H0.147424L0 54.9367ZM42.9595 37.0492C43.041 36.2197 42.9388 35.3823 42.6599 34.5968C42.3811 33.8112 41.9326 33.0968 41.3462 32.5043C39.9289 31.5303 38.2235 31.0651 36.5079 31.1845C35.2809 31.2035 34.0564 31.3015 32.842 31.478C31.7492 31.6363 30.6707 31.8814 29.6169 32.2109C28.8673 30.8706 28.512 29.3456 28.5919 27.812C29.9227 27.3642 31.3 27.0689 32.6973 26.9317C34.1503 26.6881 35.6238 26.5898 37.0962 26.6382C40.0893 26.451 43.0514 27.3344 45.4531 29.1304C47.3598 30.7451 48.3847 33.5293 48.3847 37.1938V54.9339L43.6924 55.8142C41.8503 56.1063 39.9857 56.2537 38.1212 56.2537C36.4981 56.2677 34.8919 56.1189 33.2828 55.8142C31.9583 55.5489 30.7073 54.9984 29.6169 54.201C28.6104 53.4874 27.8028 52.5285 27.2707 51.4154C26.6551 50.1363 26.3534 48.7289 26.3904 47.31C26.3284 45.8712 26.6844 44.4453 27.4153 43.2045C28.0071 42.002 28.9208 40.9871 30.0549 40.2729C31.2379 39.5126 32.5208 38.9205 33.8669 38.5136C35.344 38.0924 36.8758 37.8958 38.4118 37.9267C39.3914 37.8902 40.3723 37.9391 41.3434 38.0728C42.0763 38.0728 42.6632 38.2188 43.2501 38.2188V37.0464L42.9595 37.0492ZM42.9595 42.3284C42.2687 42.2913 41.5821 42.1974 40.9068 42.0476C40.0264 42.0476 39.2921 41.9016 38.708 41.9016C36.8547 41.7908 35.012 42.2515 33.4288 43.2214C32.8501 43.6679 32.3879 44.2478 32.0815 44.9115C31.7752 45.5753 31.6339 46.3032 31.6696 47.0334C31.5869 47.8419 31.736 48.6573 32.0994 49.3843C32.4629 50.1113 33.0258 50.7198 33.7223 51.1388C34.3511 51.4925 35.0542 51.6935 35.775 51.7257C36.4527 51.8423 37.1403 51.8913 37.8277 51.8717C38.7101 51.8962 39.593 51.8474 40.4673 51.7257L42.8121 51.2862V42.3425L42.9595 42.3284ZM54.3954 27.3725C54.8349 27.3725 55.1283 27.2265 55.5678 27.2265H57.9125C58.352 27.2265 58.6454 27.3725 59.0849 27.3725C59.1646 27.6096 59.2137 27.8559 59.2309 28.1055C59.2309 28.5449 59.377 28.8384 59.377 29.2778C59.377 29.7173 59.523 30.1582 59.523 30.5976C59.5188 30.8504 59.5693 31.0989 59.669 31.3305L60.9888 29.5713C61.5585 29.0026 62.1994 28.5099 62.8955 28.1055C64.6021 27.1619 66.5167 26.6581 68.4667 26.6396C70.0112 26.62 71.5725 26.9204 73.0116 27.52C74.4256 28.0887 75.679 28.9949 76.6621 30.1596C77.7301 31.4545 78.5279 32.9502 79.0083 34.5584C79.6277 36.6013 79.9247 38.7282 79.8886 40.8626C80.1228 45.0465 78.701 49.1545 75.9306 52.2985C73.291 55.0841 69.6124 56.4039 64.7881 56.4039C63.9547 56.4284 63.1208 56.3795 62.296 56.2579C61.4161 56.111 60.6832 55.9645 60.0972 55.8185V68.8676C59.6578 68.8676 59.2169 69.0136 58.6314 69.0136H55.9918C55.5523 69.0136 55.1115 68.8676 54.672 68.8676V27.3725H54.3954ZM59.8192 51.1261C60.5323 51.3898 61.2684 51.5863 62.018 51.713C62.9891 51.8467 63.97 51.8955 64.9496 51.8591C66.2132 51.8913 67.4404 51.6906 68.6001 51.2722C69.6844 50.901 70.6473 50.2419 71.3857 49.3655C72.2217 48.3671 72.868 47.2241 73.2924 45.993C73.7951 44.43 74.0426 42.7963 74.0253 41.1546C74.1174 38.7077 73.5609 36.28 72.4121 34.1176C71.8539 33.2405 71.0678 32.5317 70.138 32.0668C69.2081 31.6019 68.1694 31.3983 67.1329 31.478C66.235 31.4807 65.3436 31.6291 64.4933 31.9174C63.6585 32.2325 62.9065 32.7339 62.2945 33.3833C61.5924 34.0952 61.0434 34.9434 60.6813 35.8754C60.2389 37.0396 60.0392 38.2818 60.0944 39.5259V51.1093L59.8192 51.1261ZM86.5045 31.6099H82.8539C82.7224 31.2853 82.6723 30.9334 82.7079 30.585V28.2402C82.7079 27.8008 82.8539 27.5073 82.8539 27.2153H91.7977V55.6584C91.3582 55.6584 90.9174 55.8044 90.4779 55.8044H87.8383C87.3988 55.8044 86.958 55.6584 86.5185 55.6584L86.5045 31.6099ZM103.659 42.8985C103.805 45.9775 104.539 48.3237 106.004 49.6435C107.875 51.2353 110.299 52.0253 112.749 51.8422C115.3 51.8562 117.834 51.4112 120.227 50.5224C120.581 51.162 120.829 51.8554 120.96 52.5751C121.128 53.3463 121.226 54.1311 121.255 54.9199C119.993 55.4838 118.662 55.878 117.297 56.0922C115.702 56.3969 114.067 56.5443 112.458 56.5317C110.213 56.6201 107.972 56.2721 105.859 55.5068C104.164 54.7122 102.624 53.6199 101.314 52.2817C100.097 50.9331 99.1951 49.3301 98.6747 47.5894C98.0747 45.6929 97.7776 43.7137 97.7944 41.7247C97.8028 39.7478 98.0471 37.7934 98.5273 35.86C99.0313 34.1431 99.8792 32.5467 101.019 31.1677C102.185 29.8577 103.575 28.7808 105.125 27.9426C107.046 27.0271 109.155 26.575 111.283 26.6228C112.942 26.5506 114.596 26.8562 116.12 27.5166C117.644 28.1769 118.997 29.1748 120.079 30.4348C121.122 31.6132 121.875 33.0191 122.278 34.5402C122.828 36.2433 123.078 38.0292 123.011 39.8194V41.434C123.011 42.0209 122.865 42.459 122.865 42.8999L103.659 42.8985ZM117.735 38.793C117.743 37.7988 117.594 36.8095 117.295 35.8614C116.994 34.9915 116.601 34.156 116.123 33.3692C115.582 32.6335 114.88 32.0316 114.07 31.6099C113.156 31.1772 112.149 30.9757 111.138 31.0231C110.186 30.9748 109.234 31.1333 108.348 31.4876C107.462 31.8419 106.663 32.3837 106.007 33.0758C104.709 34.7137 103.941 36.7088 103.808 38.7944L117.735 38.793ZM129.171 27.3585C129.61 27.3585 129.903 27.2125 130.343 27.2125H132.688C133.127 27.2125 133.421 27.3585 133.86 27.3585C134.049 28.0763 134.148 28.8149 134.153 29.5572C134.272 30.3329 134.321 31.1176 134.299 31.902C135.047 30.5917 136.104 29.4844 137.379 28.6769C138.823 27.7625 140.508 27.3027 142.217 27.3571H143.097C143.351 27.3195 143.61 27.3711 143.83 27.5031C143.83 27.7839 143.976 28.236 143.976 28.5281V29.7005C144 30.1454 143.951 30.5913 143.83 31.0203C143.83 31.4597 143.684 31.9006 143.684 32.34C143.403 32.34 143.097 32.194 142.804 32.194H142.071C141.124 32.1851 140.183 32.3336 139.285 32.6335C138.351 32.92 137.497 33.4222 136.793 34.0993C135.977 34.9191 135.373 35.9253 135.034 37.031C134.575 38.5507 134.376 40.1373 134.447 41.7233V55.8156C134.007 55.8156 133.567 55.9617 133.127 55.9617H130.487C130.048 55.9617 129.463 55.8156 129.022 55.8156V27.3725L129.171 27.3585ZM97.06 10.6588H91.6489L95.4608 6.84685C95.18 6.40739 94.8739 6.11394 94.5805 5.67448C94.1591 5.3695 93.7667 5.02641 93.4081 4.64953L89.5849 8.45729V3.16405C89.1062 3.04304 88.6122 2.99383 88.1191 3.01803C87.6258 2.98649 87.1307 3.03582 86.6533 3.16405V8.58927L82.6939 4.62987C82.239 4.89096 81.8405 5.23983 81.5215 5.65622C81.2407 6.09569 80.7886 6.38913 80.4966 6.8286L84.3085 10.6406H79.0125L78.8665 12.1064C78.8334 12.6044 78.8827 13.1044 79.0125 13.5863H84.4377L80.4783 17.5457C81.0582 18.4162 81.8051 19.1659 82.677 19.7444L86.489 15.9324V21.3576C86.9677 21.4786 87.4617 21.5278 87.9548 21.5037C88.4481 21.5352 88.9433 21.4859 89.4207 21.3576V15.9324L93.2326 19.7444C93.6875 19.4833 94.086 19.1344 94.405 18.718C94.783 18.3606 95.1262 17.968 95.43 17.5457L91.6489 13.7365H97.0741C97.1951 13.2578 97.2443 12.7638 97.2201 12.2707C97.251 11.7282 97.2018 11.1841 97.0741 10.656L97.06 10.6588ZM90.315 12.1246C90.3014 12.7704 90.2022 13.4116 90.0202 14.0313C89.4164 14.27 88.7636 14.3683 88.1135 14.3121C87.4677 14.2985 86.8266 14.1993 86.2068 14.0173C85.9681 13.4136 85.8698 12.7607 85.926 12.1106C85.9397 11.4648 86.0388 10.8237 86.2208 10.2039C86.8246 9.96523 87.4775 9.86695 88.1275 9.92311C88.7733 9.93678 89.4145 10.0359 90.0342 10.218C90.2034 10.8405 90.3018 11.4801 90.3277 12.1246H90.315Z" fill="#FF4A00"/>
</svg>
