<svg width="108" height="108" viewBox="0 0 108 108" fill="none" xmlns="http://www.w3.org/2000/svg">
<g opacity="0.2">
<path d="M92.8947 0.104248C91.6737 0.104248 90.6826 1.09025 90.6826 2.31125C90.6826 3.53425 91.6737 4.52423 92.8947 4.52423C94.1137 4.52423 95.1057 3.53425 95.1057 2.31125C95.1057 1.09125 94.1137 0.104248 92.8947 0.104248Z" fill="white"/>
<path d="M92.8947 12.9583C91.6737 12.9583 90.6826 13.9492 90.6826 15.1712C90.6826 16.3902 91.6737 17.3782 92.8947 17.3782C94.1137 17.3782 95.1057 16.3902 95.1057 15.1712C95.1057 13.9492 94.1137 12.9583 92.8947 12.9583Z" fill="white"/>
<path d="M92.8947 25.8163C91.6737 25.8163 90.6826 26.8012 90.6826 28.0242C90.6826 29.2462 91.6737 30.2332 92.8947 30.2332C94.1137 30.2332 95.1057 29.2462 95.1057 28.0242C95.1057 26.8022 94.1137 25.8163 92.8947 25.8163Z" fill="white"/>
<path d="M92.8947 38.6732C91.6737 38.6732 90.6826 39.6612 90.6826 40.8822C90.6826 42.1052 91.6737 43.0912 92.8947 43.0912C94.1137 43.0912 95.1057 42.1052 95.1057 40.8822C95.1057 39.6612 94.1137 38.6732 92.8947 38.6732Z" fill="white"/>
<path d="M92.8947 51.5292C91.6737 51.5292 90.6826 52.5142 90.6826 53.7352C90.6826 54.9582 91.6737 55.9432 92.8947 55.9432C94.1137 55.9432 95.1057 54.9582 95.1057 53.7352C95.1057 52.5152 94.1137 51.5292 92.8947 51.5292Z" fill="white"/>
<path d="M92.8947 64.3882C91.6737 64.3882 90.6826 65.3732 90.6826 66.5952C90.6826 67.8122 91.6737 68.8082 92.8947 68.8082C94.1137 68.8082 95.1057 67.8122 95.1057 66.5952C95.1057 65.3732 94.1137 64.3882 92.8947 64.3882Z" fill="white"/>
<path d="M92.8947 77.2412C91.6737 77.2412 90.6826 78.2312 90.6826 79.4532C90.6826 80.6702 91.6737 81.6612 92.8947 81.6612C94.1137 81.6612 95.1057 80.6702 95.1057 79.4532C95.1057 78.2312 94.1137 77.2412 92.8947 77.2412Z" fill="white"/>
<path d="M92.8947 90.1002C91.6737 90.1002 90.6826 91.0842 90.6826 92.3062C90.6826 93.5282 91.6737 94.5182 92.8947 94.5182C94.1137 94.5182 95.1057 93.5282 95.1057 92.3062C95.1057 91.0852 94.1137 90.1002 92.8947 90.1002Z" fill="white"/>
<path d="M92.8947 102.953C91.6737 102.953 90.6826 103.938 90.6826 105.16C90.6826 106.381 91.6737 107.372 92.8947 107.372C94.1137 107.372 95.1057 106.381 95.1057 105.16C95.1057 103.938 94.1137 102.953 92.8947 102.953Z" fill="white"/>
<path d="M105.752 4.52423C106.971 4.52423 107.961 3.53425 107.961 2.31125C107.961 1.09025 106.971 0.104248 105.752 0.104248C104.526 0.104248 103.545 1.09025 103.545 2.31125C103.545 3.53425 104.527 4.52423 105.752 4.52423Z" fill="white"/>
<path d="M105.752 12.9583C104.526 12.9583 103.545 13.9492 103.545 15.1712C103.545 16.3902 104.526 17.3782 105.752 17.3782C106.971 17.3782 107.961 16.3902 107.961 15.1712C107.961 13.9492 106.971 12.9583 105.752 12.9583Z" fill="white"/>
<path d="M105.752 25.8163C104.526 25.8163 103.545 26.8012 103.545 28.0242C103.545 29.2462 104.526 30.2332 105.752 30.2332C106.971 30.2332 107.961 29.2462 107.961 28.0242C107.961 26.8022 106.971 25.8163 105.752 25.8163Z" fill="white"/>
<path d="M105.752 38.6732C104.526 38.6732 103.545 39.6612 103.545 40.8822C103.545 42.1052 104.526 43.0912 105.752 43.0912C106.971 43.0912 107.961 42.1052 107.961 40.8822C107.961 39.6612 106.971 38.6732 105.752 38.6732Z" fill="white"/>
<path d="M105.752 51.5292C104.526 51.5292 103.545 52.5142 103.545 53.7352C103.545 54.9582 104.526 55.9432 105.752 55.9432C106.971 55.9432 107.961 54.9582 107.961 53.7352C107.961 52.5152 106.971 51.5292 105.752 51.5292Z" fill="white"/>
<path d="M105.752 64.3882C104.526 64.3882 103.545 65.3732 103.545 66.5952C103.545 67.8122 104.526 68.8082 105.752 68.8082C106.971 68.8082 107.961 67.8122 107.961 66.5952C107.961 65.3732 106.971 64.3882 105.752 64.3882Z" fill="white"/>
<path d="M105.752 77.2412C104.526 77.2412 103.545 78.2312 103.545 79.4532C103.545 80.6702 104.526 81.6612 105.752 81.6612C106.971 81.6612 107.961 80.6702 107.961 79.4532C107.961 78.2312 106.971 77.2412 105.752 77.2412Z" fill="white"/>
<path d="M105.752 90.1002C104.526 90.1002 103.545 91.0842 103.545 92.3062C103.545 93.5282 104.526 94.5182 105.752 94.5182C106.971 94.5182 107.961 93.5282 107.961 92.3062C107.961 91.0852 106.971 90.1002 105.752 90.1002Z" fill="white"/>
<path d="M105.752 102.953C104.526 102.953 103.545 103.938 103.545 105.16C103.545 106.381 104.526 107.372 105.752 107.372C106.971 107.372 107.961 106.381 107.961 105.16C107.961 103.938 106.971 102.953 105.752 102.953Z" fill="white"/>
<path d="M2.90289 0.104248C1.68389 0.104248 0.693848 1.09025 0.693848 2.31125C0.693848 3.53425 1.68389 4.52423 2.90289 4.52423C4.12289 4.52423 5.10986 3.53425 5.10986 2.31125C5.10986 1.09125 4.12189 0.104248 2.90289 0.104248Z" fill="white"/>
<path d="M2.90289 12.9583C1.68389 12.9583 0.693848 13.9492 0.693848 15.1712C0.693848 16.3902 1.68389 17.3782 2.90289 17.3782C4.12289 17.3782 5.10986 16.3902 5.10986 15.1712C5.10986 13.9492 4.12189 12.9583 2.90289 12.9583Z" fill="white"/>
<path d="M2.90289 25.8163C1.68389 25.8163 0.693848 26.8012 0.693848 28.0242C0.693848 29.2462 1.68389 30.2332 2.90289 30.2332C4.12289 30.2332 5.10986 29.2462 5.10986 28.0242C5.10986 26.8022 4.12189 25.8163 2.90289 25.8163Z" fill="white"/>
<path d="M2.90289 38.6732C1.68389 38.6732 0.693848 39.6612 0.693848 40.8822C0.693848 42.1052 1.68389 43.0912 2.90289 43.0912C4.12289 43.0912 5.10986 42.1052 5.10986 40.8822C5.10986 39.6612 4.12189 38.6732 2.90289 38.6732Z" fill="white"/>
<path d="M2.90289 51.5292C1.68389 51.5292 0.693848 52.5142 0.693848 53.7352C0.693848 54.9582 1.68389 55.9432 2.90289 55.9432C4.12289 55.9432 5.10986 54.9582 5.10986 53.7352C5.10986 52.5152 4.12189 51.5292 2.90289 51.5292Z" fill="white"/>
<path d="M2.90289 64.3882C1.68389 64.3882 0.693848 65.3732 0.693848 66.5952C0.693848 67.8122 1.68389 68.8082 2.90289 68.8082C4.12289 68.8082 5.10986 67.8122 5.10986 66.5952C5.10986 65.3732 4.12189 64.3882 2.90289 64.3882Z" fill="white"/>
<path d="M2.90289 77.2412C1.68389 77.2412 0.693848 78.2312 0.693848 79.4532C0.693848 80.6702 1.68389 81.6612 2.90289 81.6612C4.12289 81.6612 5.10986 80.6702 5.10986 79.4532C5.10986 78.2312 4.12189 77.2412 2.90289 77.2412Z" fill="white"/>
<path d="M2.90289 90.1002C1.68389 90.1002 0.693848 91.0842 0.693848 92.3062C0.693848 93.5282 1.68389 94.5182 2.90289 94.5182C4.12289 94.5182 5.10986 93.5282 5.10986 92.3062C5.10986 91.0852 4.12189 90.1002 2.90289 90.1002Z" fill="white"/>
<path d="M2.90289 102.953C1.68389 102.953 0.693848 103.938 0.693848 105.16C0.693848 106.381 1.68389 107.372 2.90289 107.372C4.12289 107.372 5.10986 106.381 5.10986 105.16C5.10986 103.938 4.12189 102.953 2.90289 102.953Z" fill="white"/>
<path d="M15.7598 0.104248C14.5368 0.104248 13.5488 1.09025 13.5488 2.31125C13.5488 3.53425 14.5368 4.52423 15.7598 4.52423C16.9788 4.52423 17.9718 3.53425 17.9718 2.31125C17.9718 1.09125 16.9788 0.104248 15.7598 0.104248Z" fill="white"/>
<path d="M15.7598 12.9583C14.5368 12.9583 13.5488 13.9492 13.5488 15.1712C13.5488 16.3902 14.5368 17.3782 15.7598 17.3782C16.9788 17.3782 17.9718 16.3902 17.9718 15.1712C17.9718 13.9492 16.9788 12.9583 15.7598 12.9583Z" fill="white"/>
<path d="M15.7598 25.8163C14.5368 25.8163 13.5488 26.8012 13.5488 28.0242C13.5488 29.2462 14.5368 30.2332 15.7598 30.2332C16.9788 30.2332 17.9718 29.2462 17.9718 28.0242C17.9718 26.8022 16.9788 25.8163 15.7598 25.8163Z" fill="white"/>
<path d="M15.7598 38.6732C14.5368 38.6732 13.5488 39.6612 13.5488 40.8822C13.5488 42.1052 14.5368 43.0912 15.7598 43.0912C16.9788 43.0912 17.9718 42.1052 17.9718 40.8822C17.9718 39.6612 16.9788 38.6732 15.7598 38.6732Z" fill="white"/>
<path d="M15.7598 51.5292C14.5368 51.5292 13.5488 52.5142 13.5488 53.7352C13.5488 54.9582 14.5368 55.9432 15.7598 55.9432C16.9788 55.9432 17.9718 54.9582 17.9718 53.7352C17.9718 52.5152 16.9788 51.5292 15.7598 51.5292Z" fill="white"/>
<path d="M15.7598 64.3882C14.5368 64.3882 13.5488 65.3732 13.5488 66.5952C13.5488 67.8122 14.5368 68.8082 15.7598 68.8082C16.9788 68.8082 17.9718 67.8122 17.9718 66.5952C17.9718 65.3732 16.9788 64.3882 15.7598 64.3882Z" fill="white"/>
<path d="M15.7598 77.2412C14.5368 77.2412 13.5488 78.2312 13.5488 79.4532C13.5488 80.6702 14.5368 81.6612 15.7598 81.6612C16.9788 81.6612 17.9718 80.6702 17.9718 79.4532C17.9718 78.2312 16.9788 77.2412 15.7598 77.2412Z" fill="white"/>
<path d="M15.7598 90.1002C14.5368 90.1002 13.5488 91.0842 13.5488 92.3062C13.5488 93.5282 14.5368 94.5182 15.7598 94.5182C16.9788 94.5182 17.9718 93.5282 17.9718 92.3062C17.9718 91.0852 16.9788 90.1002 15.7598 90.1002Z" fill="white"/>
<path d="M15.7598 102.953C14.5368 102.953 13.5488 103.938 13.5488 105.16C13.5488 106.381 14.5368 107.372 15.7598 107.372C16.9788 107.372 17.9718 106.381 17.9718 105.16C17.9718 103.938 16.9788 102.953 15.7598 102.953Z" fill="white"/>
<path d="M28.6138 0.104248C27.3938 0.104248 26.4048 1.09025 26.4048 2.31125C26.4048 3.53425 27.3938 4.52423 28.6138 4.52423C29.8368 4.52423 30.8248 3.53425 30.8248 2.31125C30.8248 1.09125 29.8358 0.104248 28.6138 0.104248Z" fill="white"/>
<path d="M28.6138 12.9583C27.3938 12.9583 26.4048 13.9492 26.4048 15.1712C26.4048 16.3902 27.3938 17.3782 28.6138 17.3782C29.8368 17.3782 30.8248 16.3902 30.8248 15.1712C30.8248 13.9492 29.8358 12.9583 28.6138 12.9583Z" fill="white"/>
<path d="M28.6138 25.8163C27.3938 25.8163 26.4048 26.8012 26.4048 28.0242C26.4048 29.2462 27.3938 30.2332 28.6138 30.2332C29.8368 30.2332 30.8248 29.2462 30.8248 28.0242C30.8248 26.8022 29.8358 25.8163 28.6138 25.8163Z" fill="white"/>
<path d="M28.6138 38.6732C27.3938 38.6732 26.4048 39.6612 26.4048 40.8822C26.4048 42.1052 27.3938 43.0912 28.6138 43.0912C29.8368 43.0912 30.8248 42.1052 30.8248 40.8822C30.8248 39.6612 29.8358 38.6732 28.6138 38.6732Z" fill="white"/>
<path d="M28.6138 51.5292C27.3938 51.5292 26.4048 52.5142 26.4048 53.7352C26.4048 54.9582 27.3938 55.9432 28.6138 55.9432C29.8368 55.9432 30.8248 54.9582 30.8248 53.7352C30.8248 52.5152 29.8358 51.5292 28.6138 51.5292Z" fill="white"/>
<path d="M28.6138 64.3882C27.3938 64.3882 26.4048 65.3732 26.4048 66.5952C26.4048 67.8122 27.3938 68.8082 28.6138 68.8082C29.8368 68.8082 30.8248 67.8122 30.8248 66.5952C30.8248 65.3732 29.8358 64.3882 28.6138 64.3882Z" fill="white"/>
<path d="M28.6138 77.2412C27.3938 77.2412 26.4048 78.2312 26.4048 79.4532C26.4048 80.6702 27.3938 81.6612 28.6138 81.6612C29.8368 81.6612 30.8248 80.6702 30.8248 79.4532C30.8248 78.2312 29.8358 77.2412 28.6138 77.2412Z" fill="white"/>
<path d="M28.6138 90.1002C27.3938 90.1002 26.4048 91.0842 26.4048 92.3062C26.4048 93.5282 27.3938 94.5182 28.6138 94.5182C29.8368 94.5182 30.8248 93.5282 30.8248 92.3062C30.8248 91.0852 29.8358 90.1002 28.6138 90.1002Z" fill="white"/>
<path d="M28.6138 102.953C27.3938 102.953 26.4048 103.938 26.4048 105.16C26.4048 106.381 27.3938 107.372 28.6138 107.372C29.8368 107.372 30.8248 106.381 30.8248 105.16C30.8248 103.938 29.8358 102.953 28.6138 102.953Z" fill="white"/>
<path d="M41.4749 0.104248C40.2539 0.104248 39.2618 1.09025 39.2618 2.31125C39.2618 3.53425 40.2539 4.52423 41.4749 4.52423C42.6939 4.52423 43.6808 3.53425 43.6808 2.31125C43.6808 1.09125 42.6939 0.104248 41.4749 0.104248Z" fill="white"/>
<path d="M41.4749 12.9583C40.2539 12.9583 39.2618 13.9492 39.2618 15.1712C39.2618 16.3902 40.2539 17.3782 41.4749 17.3782C42.6939 17.3782 43.6808 16.3902 43.6808 15.1712C43.6808 13.9492 42.6939 12.9583 41.4749 12.9583Z" fill="white"/>
<path d="M41.4749 25.8163C40.2539 25.8163 39.2618 26.8012 39.2618 28.0242C39.2618 29.2462 40.2539 30.2332 41.4749 30.2332C42.6939 30.2332 43.6808 29.2462 43.6808 28.0242C43.6808 26.8022 42.6939 25.8163 41.4749 25.8163Z" fill="white"/>
<path d="M41.4749 38.6732C40.2539 38.6732 39.2618 39.6612 39.2618 40.8822C39.2618 42.1052 40.2539 43.0912 41.4749 43.0912C42.6939 43.0912 43.6808 42.1052 43.6808 40.8822C43.6808 39.6612 42.6939 38.6732 41.4749 38.6732Z" fill="white"/>
<path d="M41.4749 51.5292C40.2539 51.5292 39.2618 52.5142 39.2618 53.7352C39.2618 54.9582 40.2539 55.9432 41.4749 55.9432C42.6939 55.9432 43.6808 54.9582 43.6808 53.7352C43.6808 52.5152 42.6939 51.5292 41.4749 51.5292Z" fill="white"/>
<path d="M41.4749 64.3882C40.2539 64.3882 39.2618 65.3732 39.2618 66.5952C39.2618 67.8122 40.2539 68.8082 41.4749 68.8082C42.6939 68.8082 43.6808 67.8122 43.6808 66.5952C43.6808 65.3732 42.6939 64.3882 41.4749 64.3882Z" fill="white"/>
<path d="M41.4749 77.2412C40.2539 77.2412 39.2618 78.2312 39.2618 79.4532C39.2618 80.6702 40.2539 81.6612 41.4749 81.6612C42.6939 81.6612 43.6808 80.6702 43.6808 79.4532C43.6808 78.2312 42.6939 77.2412 41.4749 77.2412Z" fill="white"/>
<path d="M41.4749 90.1002C40.2539 90.1002 39.2618 91.0842 39.2618 92.3062C39.2618 93.5282 40.2539 94.5182 41.4749 94.5182C42.6939 94.5182 43.6808 93.5282 43.6808 92.3062C43.6808 91.0852 42.6939 90.1002 41.4749 90.1002Z" fill="white"/>
<path d="M41.4749 102.953C40.2539 102.953 39.2618 103.938 39.2618 105.16C39.2618 106.381 40.2539 107.372 41.4749 107.372C42.6939 107.372 43.6808 106.381 43.6808 105.16C43.6808 103.938 42.6939 102.953 41.4749 102.953Z" fill="white"/>
<path d="M54.33 0.104248C53.111 0.104248 52.1169 1.09025 52.1169 2.31125C52.1169 3.53425 53.111 4.52423 54.33 4.52423C55.549 4.52423 56.5369 3.53425 56.5369 2.31125C56.5369 1.09125 55.549 0.104248 54.33 0.104248Z" fill="white"/>
<path d="M54.33 12.9583C53.111 12.9583 52.1169 13.9492 52.1169 15.1712C52.1169 16.3902 53.111 17.3782 54.33 17.3782C55.549 17.3782 56.5369 16.3902 56.5369 15.1712C56.5369 13.9492 55.549 12.9583 54.33 12.9583Z" fill="white"/>
<path d="M54.33 25.8163C53.111 25.8163 52.1169 26.8012 52.1169 28.0242C52.1169 29.2462 53.111 30.2332 54.33 30.2332C55.549 30.2332 56.5369 29.2462 56.5369 28.0242C56.5369 26.8022 55.549 25.8163 54.33 25.8163Z" fill="white"/>
<path d="M54.33 38.6732C53.111 38.6732 52.1169 39.6612 52.1169 40.8822C52.1169 42.1052 53.111 43.0912 54.33 43.0912C55.549 43.0912 56.5369 42.1052 56.5369 40.8822C56.5369 39.6612 55.549 38.6732 54.33 38.6732Z" fill="white"/>
<path d="M54.33 51.5292C53.111 51.5292 52.1169 52.5142 52.1169 53.7352C52.1169 54.9582 53.111 55.9432 54.33 55.9432C55.549 55.9432 56.5369 54.9582 56.5369 53.7352C56.5369 52.5152 55.549 51.5292 54.33 51.5292Z" fill="white"/>
<path d="M54.33 64.3882C53.111 64.3882 52.1169 65.3732 52.1169 66.5952C52.1169 67.8122 53.111 68.8082 54.33 68.8082C55.549 68.8082 56.5369 67.8122 56.5369 66.5952C56.5369 65.3732 55.549 64.3882 54.33 64.3882Z" fill="white"/>
<path d="M54.33 77.2412C53.111 77.2412 52.1169 78.2312 52.1169 79.4532C52.1169 80.6702 53.111 81.6612 54.33 81.6612C55.549 81.6612 56.5369 80.6702 56.5369 79.4532C56.5369 78.2312 55.549 77.2412 54.33 77.2412Z" fill="white"/>
<path d="M54.33 90.1002C53.111 90.1002 52.1169 91.0842 52.1169 92.3062C52.1169 93.5282 53.111 94.5182 54.33 94.5182C55.549 94.5182 56.5369 93.5282 56.5369 92.3062C56.5369 91.0852 55.549 90.1002 54.33 90.1002Z" fill="white"/>
<path d="M54.33 102.953C53.111 102.953 52.1169 103.938 52.1169 105.16C52.1169 106.381 53.111 107.372 54.33 107.372C55.549 107.372 56.5369 106.381 56.5369 105.16C56.5369 103.938 55.549 102.953 54.33 102.953Z" fill="white"/>
<path d="M67.1799 0.104248C65.9609 0.104248 64.9709 1.09025 64.9709 2.31125C64.9709 3.53425 65.9609 4.52423 67.1799 4.52423C68.4059 4.52423 69.3929 3.53425 69.3929 2.31125C69.3929 1.09125 68.4059 0.104248 67.1799 0.104248Z" fill="white"/>
<path d="M67.1799 12.9583C65.9609 12.9583 64.9709 13.9492 64.9709 15.1712C64.9709 16.3902 65.9609 17.3782 67.1799 17.3782C68.4059 17.3782 69.3929 16.3902 69.3929 15.1712C69.3929 13.9492 68.4059 12.9583 67.1799 12.9583Z" fill="white"/>
<path d="M67.1799 25.8163C65.9609 25.8163 64.9709 26.8012 64.9709 28.0242C64.9709 29.2462 65.9609 30.2332 67.1799 30.2332C68.4059 30.2332 69.3929 29.2462 69.3929 28.0242C69.3929 26.8022 68.4059 25.8163 67.1799 25.8163Z" fill="white"/>
<path d="M67.1799 38.6732C65.9609 38.6732 64.9709 39.6612 64.9709 40.8822C64.9709 42.1052 65.9609 43.0912 67.1799 43.0912C68.4059 43.0912 69.3929 42.1052 69.3929 40.8822C69.3929 39.6612 68.4059 38.6732 67.1799 38.6732Z" fill="white"/>
<path d="M67.1799 51.5292C65.9609 51.5292 64.9709 52.5142 64.9709 53.7352C64.9709 54.9582 65.9609 55.9432 67.1799 55.9432C68.4059 55.9432 69.3929 54.9582 69.3929 53.7352C69.3929 52.5152 68.4059 51.5292 67.1799 51.5292Z" fill="white"/>
<path d="M67.1799 64.3882C65.9609 64.3882 64.9709 65.3732 64.9709 66.5952C64.9709 67.8122 65.9609 68.8082 67.1799 68.8082C68.4059 68.8082 69.3929 67.8122 69.3929 66.5952C69.3929 65.3732 68.4059 64.3882 67.1799 64.3882Z" fill="white"/>
<path d="M67.1799 77.2412C65.9609 77.2412 64.9709 78.2312 64.9709 79.4532C64.9709 80.6702 65.9609 81.6612 67.1799 81.6612C68.4059 81.6612 69.3929 80.6702 69.3929 79.4532C69.3929 78.2312 68.4059 77.2412 67.1799 77.2412Z" fill="white"/>
<path d="M67.1799 90.1002C65.9609 90.1002 64.9709 91.0842 64.9709 92.3062C64.9709 93.5282 65.9609 94.5182 67.1799 94.5182C68.4059 94.5182 69.3929 93.5282 69.3929 92.3062C69.3929 91.0852 68.4059 90.1002 67.1799 90.1002Z" fill="white"/>
<path d="M67.1799 102.953C65.9609 102.953 64.9709 103.938 64.9709 105.16C64.9709 106.381 65.9609 107.372 67.1799 107.372C68.4059 107.372 69.3929 106.381 69.3929 105.16C69.3929 103.938 68.4059 102.953 67.1799 102.953Z" fill="white"/>
<path d="M80.0408 0.104248C78.8168 0.104248 77.8298 1.09025 77.8298 2.31125C77.8298 3.53425 78.8168 4.52423 80.0408 4.52423C81.2578 4.52423 82.2488 3.53425 82.2488 2.31125C82.2488 1.09125 81.2578 0.104248 80.0408 0.104248Z" fill="white"/>
<path d="M80.0408 12.9583C78.8168 12.9583 77.8298 13.9492 77.8298 15.1712C77.8298 16.3902 78.8168 17.3782 80.0408 17.3782C81.2578 17.3782 82.2488 16.3902 82.2488 15.1712C82.2488 13.9492 81.2578 12.9583 80.0408 12.9583Z" fill="white"/>
<path d="M80.0408 25.8163C78.8168 25.8163 77.8298 26.8012 77.8298 28.0242C77.8298 29.2462 78.8168 30.2332 80.0408 30.2332C81.2578 30.2332 82.2488 29.2462 82.2488 28.0242C82.2488 26.8022 81.2578 25.8163 80.0408 25.8163Z" fill="white"/>
<path d="M80.0408 38.6732C78.8168 38.6732 77.8298 39.6612 77.8298 40.8822C77.8298 42.1052 78.8168 43.0912 80.0408 43.0912C81.2578 43.0912 82.2488 42.1052 82.2488 40.8822C82.2488 39.6612 81.2578 38.6732 80.0408 38.6732Z" fill="white"/>
<path d="M80.0408 51.5292C78.8168 51.5292 77.8298 52.5142 77.8298 53.7352C77.8298 54.9582 78.8168 55.9432 80.0408 55.9432C81.2578 55.9432 82.2488 54.9582 82.2488 53.7352C82.2488 52.5152 81.2578 51.5292 80.0408 51.5292Z" fill="white"/>
<path d="M80.0408 64.3882C78.8168 64.3882 77.8298 65.3732 77.8298 66.5952C77.8298 67.8122 78.8168 68.8082 80.0408 68.8082C81.2578 68.8082 82.2488 67.8122 82.2488 66.5952C82.2488 65.3732 81.2578 64.3882 80.0408 64.3882Z" fill="white"/>
<path d="M80.0408 77.2412C78.8168 77.2412 77.8298 78.2312 77.8298 79.4532C77.8298 80.6702 78.8168 81.6612 80.0408 81.6612C81.2578 81.6612 82.2488 80.6702 82.2488 79.4532C82.2488 78.2312 81.2578 77.2412 80.0408 77.2412Z" fill="white"/>
<path d="M80.0408 90.1002C78.8168 90.1002 77.8298 91.0842 77.8298 92.3062C77.8298 93.5282 78.8168 94.5182 80.0408 94.5182C81.2578 94.5182 82.2488 93.5282 82.2488 92.3062C82.2488 91.0852 81.2578 90.1002 80.0408 90.1002Z" fill="white"/>
<path d="M80.0408 102.953C78.8168 102.953 77.8298 103.938 77.8298 105.16C77.8298 106.381 78.8168 107.372 80.0408 107.372C81.2578 107.372 82.2488 106.381 82.2488 105.16C82.2488 103.938 81.2578 102.953 80.0408 102.953Z" fill="white"/>
</g>
</svg>
