<svg width="54" height="23" viewBox="0 0 54 23" fill="none" xmlns="http://www.w3.org/2000/svg">
<path fill-rule="evenodd" clip-rule="evenodd" d="M10.057 3.2707C9.42967 4.01977 8.42586 4.61057 7.42206 4.52617C7.29659 3.51337 7.78809 2.43723 8.36308 1.77257C8.9905 1.00242 10.0884 0.453875 10.9772 0.411621C11.0817 1.46668 10.6739 2.50056 10.057 3.2707ZM10.9666 4.72658C10.0823 4.67528 9.27538 4.995 8.62361 5.25321C8.20419 5.41935 7.84905 5.56005 7.5788 5.56005C7.27556 5.56005 6.90579 5.4119 6.49054 5.24544C5.9464 5.02736 5.32432 4.77799 4.67202 4.78991C3.17683 4.81098 1.78617 5.66563 1.02282 7.02658C-0.545579 9.74847 0.615041 13.7787 2.13116 15.9942C2.87358 17.0914 3.76239 18.2941 4.93341 18.2519C5.44861 18.2324 5.81923 18.0737 6.20277 17.9095C6.6444 17.7204 7.10311 17.524 7.81937 17.524C8.51075 17.524 8.94939 17.7152 9.37052 17.8989C9.77082 18.0735 10.1553 18.2411 10.7262 18.2309C11.939 18.2097 12.7024 17.1337 13.4447 16.0365C14.2458 14.8588 14.598 13.7095 14.6514 13.5351L14.6577 13.5149C14.6577 13.5149 14.6465 13.509 14.629 13.501C14.3612 13.3773 12.3141 12.4317 12.2946 9.89619C12.2748 7.76798 13.9181 6.68972 14.1769 6.51996C14.1926 6.50964 14.2032 6.50272 14.208 6.4991C13.1624 4.93764 11.5312 4.76884 10.9666 4.72658ZM19.363 18.1148V1.66709H25.4798C28.6376 1.66709 30.8438 3.86151 30.8438 7.06872C30.8438 10.276 28.5958 12.4915 25.3962 12.4915H21.8934V18.1148H19.363ZM21.8932 3.81936H24.8104C27.0062 3.81936 28.2609 5.00096 28.2609 7.07937C28.2609 9.15766 27.0062 10.3499 24.8 10.3499H21.8932V3.81936ZM39.1984 16.1419C38.5292 17.429 37.0548 18.2414 35.4656 18.2414C33.1129 18.2414 31.4713 16.8277 31.4713 14.6966C31.4713 12.5865 33.0606 11.3733 35.9988 11.1939L39.1565 11.0039V10.0967C39.1565 8.75684 38.2886 8.02885 36.7412 8.02885C35.4656 8.02885 34.5349 8.69351 34.3468 9.70632H32.0673C32.1404 7.57523 34.1271 6.02431 36.8144 6.02431C39.7107 6.02431 41.5928 7.55405 41.5928 9.92791V18.1148H39.2507V16.1419H39.1984ZM36.145 16.2897C34.7962 16.2897 33.9388 15.6355 33.9388 14.6333C33.9388 13.5994 34.7648 12.9979 36.3437 12.903L39.1564 12.7237V13.6521C39.1564 15.1925 37.8598 16.2897 36.145 16.2897ZM49.3616 18.7584C48.3474 21.6386 47.1868 22.5881 44.7192 22.5881C44.5309 22.5881 43.9035 22.567 43.7571 22.5248V20.5519C43.914 20.573 44.3009 20.5941 44.4995 20.5941C45.6183 20.5941 46.2457 20.1193 46.6326 18.885L46.8626 18.157L42.5756 6.18257H45.221L48.201 15.8993H48.2533L51.2333 6.18257H53.8055L49.3616 18.7584Z" fill="white"/>
</svg>
