<svg width="48" height="19" viewBox="0 0 48 19" fill="none" xmlns="http://www.w3.org/2000/svg">
<path d="M22.8407 9.29149V14.6695H21.1332V1.3852H25.6594C26.7512 1.36197 27.8063 1.77626 28.5903 2.53514C29.3841 3.24949 29.8313 4.27166 29.8138 5.33835C29.8371 6.41278 29.3899 7.44269 28.5903 8.15898C27.7985 8.91399 26.8209 9.29149 25.6594 9.28956L22.8407 9.29149ZM22.8407 3.02105V7.65951H25.7019C26.3369 7.67887 26.9487 7.42914 27.3901 6.97226C28.2864 6.1011 28.3077 4.66658 27.4346 3.77025C27.4191 3.75477 27.4056 3.73928 27.3901 3.72573C26.9545 3.25917 26.3389 3.00363 25.7019 3.02105H22.8407ZM33.7476 5.28414C35.0098 5.28414 36.0049 5.62099 36.7347 6.29469C37.4646 6.96839 37.8285 7.89376 37.8285 9.06693V14.6695H36.1966V13.4073H36.123C35.4164 14.4468 34.4755 14.9657 33.3024 14.9657C32.3015 14.9657 31.4632 14.6695 30.7895 14.0751C30.1352 13.5234 29.7635 12.7065 29.779 11.8488C29.779 10.908 30.1352 10.1607 30.8457 9.60511C31.5562 9.0495 32.5048 8.77073 33.6934 8.77073C34.7059 8.77073 35.5422 8.95658 36.1966 9.32634V8.93528C36.2004 8.35064 35.941 7.79696 35.4919 7.42527C35.0408 7.01872 34.4523 6.79609 33.8444 6.80384C32.8919 6.80384 32.1369 7.20651 31.5813 8.00991L30.0791 7.06325C30.9038 5.87653 32.1273 5.28414 33.7476 5.28414ZM31.5387 11.8876C31.5368 12.3289 31.7478 12.7432 32.104 13.0007C32.4815 13.2969 32.95 13.4557 33.4301 13.446C34.1503 13.444 34.8414 13.1575 35.3506 12.6484C35.9158 12.116 36.1985 11.4926 36.1985 10.7744C35.6661 10.3504 34.9247 10.1375 33.9722 10.1375C33.2791 10.1375 32.7003 10.304 32.2376 10.6389C31.771 10.9796 31.5387 11.392 31.5387 11.8876ZM47.1984 5.58034L41.501 18.6768H39.7393L41.8533 14.0945L38.1054 5.58034H39.96L42.6683 12.1102H42.7051L45.3399 5.58034H47.1984Z" fill="white"/>
<path d="M15.9429 8.12975C15.9429 7.60899 15.9003 7.09017 15.8113 6.57715H8.61353V9.51587H12.7351C12.5647 10.4645 12.0149 11.3027 11.2115 11.8351V13.7439H13.6721C15.1124 12.4178 15.9429 10.4529 15.9429 8.12975Z" fill="#4285F4"/>
<path d="M8.61347 15.5887C10.6733 15.5887 12.4079 14.9131 13.672 13.7457L11.2115 11.8369C10.5262 12.3015 9.64531 12.5667 8.61347 12.5667C6.62335 12.5667 4.93329 11.2251 4.32928 9.41699H1.79517V11.3839C3.0903 13.9625 5.72895 15.5887 8.61347 15.5887Z" fill="#34A853"/>
<path d="M4.32926 9.41651C4.00983 8.46985 4.00983 7.44188 4.32926 6.49521V4.52832H1.79514C0.711027 6.68493 0.711027 9.22679 1.79514 11.3834L4.32926 9.41651Z" fill="#FBBC04"/>
<path d="M8.61347 3.34567C9.70146 3.32825 10.7527 3.73867 11.5406 4.4898L13.7204 2.31189C12.3382 1.01483 10.5087 0.302411 8.61347 0.323706C5.72895 0.323706 3.0903 1.95181 1.79517 4.52852L4.32928 6.49541C4.93329 4.68726 6.62335 3.34567 8.61347 3.34567Z" fill="#EA4335"/>
</svg>
