<svg width="40" height="39" viewBox="0 0 40 39" fill="none" xmlns="http://www.w3.org/2000/svg">
<path d="M23.1702 25.5358H16.21V13.1201H23.1702V25.5358Z" fill="#FF5F00"/>
<path d="M16.6561 19.3273C16.6561 16.8087 17.8441 14.5652 19.6943 13.1194C18.3413 12.0622 16.6338 11.4312 14.7781 11.4312C10.385 11.4312 6.82385 14.9663 6.82385 19.3273C6.82385 23.6881 10.385 27.2233 14.7781 27.2233C16.6338 27.2233 18.3413 26.5923 19.6943 25.535C17.8441 24.0893 16.6561 21.8458 16.6561 19.3273Z" fill="#EB001B"/>
<path d="M32.5574 19.3273C32.5574 23.6881 28.9962 27.2233 24.6031 27.2233C22.7474 27.2233 21.04 26.5923 19.6865 25.535C21.5371 24.0893 22.7252 21.8458 22.7252 19.3273C22.7252 16.8087 21.5371 14.5652 19.6865 13.1194C21.04 12.0622 22.7474 11.4312 24.6031 11.4312C28.9962 11.4312 32.5574 14.9663 32.5574 19.3273Z" fill="#F79E1B"/>
</svg>
