<svg width="55" height="17" viewBox="0 0 55 17" fill="none" xmlns="http://www.w3.org/2000/svg">
<g clip-path="url(#clip0_20_1364)">
<path fill-rule="evenodd" clip-rule="evenodd" d="M25.8669 4.02502C27.1837 4.02502 28.3503 4.69782 29.0834 5.75812V0.0883789H30.5832V12.7061H29.0834V11.2422C28.3503 12.3045 27.1837 12.9753 25.8669 12.9753C23.4004 12.9753 21.3174 11.007 21.3174 8.50041C21.3174 5.99386 23.4004 4.02502 25.8669 4.02502ZM25.8669 11.6292C27.8167 11.6292 29.0834 10.3003 29.0834 8.50041C29.0834 6.70055 27.8167 5.37112 25.8669 5.37112C24.1341 5.37112 22.8171 6.63273 22.8171 8.50041C22.8171 10.368 24.1341 11.6292 25.8669 11.6292ZM18.8178 5.75807C18.0847 4.69777 16.9182 4.02497 15.6018 4.02497C13.1348 4.02497 11.0518 5.99381 11.0518 8.50035C11.0518 11.0069 13.1348 12.9753 15.6018 12.9753C16.9016 12.9753 18.0662 12.3045 18.8178 11.2422V12.7061H20.3177V4.2941H18.8178V5.75807ZM18.8178 8.50035C18.8178 10.2835 17.5345 11.6291 15.6018 11.6291C13.8685 11.6291 12.5516 10.368 12.5516 8.50035C12.5516 6.63273 13.8685 5.37107 15.6018 5.37107C17.5515 5.37107 18.8178 6.69997 18.8178 8.50035ZM0.0532227 8.28028V8.73557C0.32701 8.73562 0.598103 8.79019 0.850995 8.89607C1.10389 9.00196 1.33364 9.15715 1.5271 9.35273C1.72055 9.5483 1.87393 9.78047 1.97846 10.0359C2.08299 10.2914 2.13662 10.5651 2.1363 10.8415H2.55321C2.55334 10.2838 2.77285 9.74903 3.16347 9.35467C3.5541 8.96032 4.08386 8.73872 4.63628 8.73862V8.28333C4.3625 8.28328 4.0914 8.22871 3.83851 8.12282C3.58561 8.01694 3.35587 7.8618 3.16241 7.66617C2.96895 7.4706 2.81557 7.23848 2.71104 6.98303C2.60651 6.72757 2.55288 6.45382 2.55321 6.17744H2.1363C2.13616 6.73509 1.91665 7.26987 1.52603 7.66422C1.13541 8.05858 0.605647 8.28018 0.0532227 8.28028ZM5.71915 5.38779H2.1363V4.04166H5.71915C8.23566 4.04166 10.219 6.04438 10.219 8.50035C10.219 10.9563 8.23566 12.9585 5.71915 12.9585H3.63609V16.9119H2.1363V11.6124H5.71915C7.46949 11.6124 8.71924 10.3513 8.71924 8.50035C8.71924 6.6494 7.46902 5.38779 5.71915 5.38779ZM39.5165 5.75812C38.7829 4.69782 37.6163 4.02502 36.3 4.02502C33.8335 4.02502 31.7505 5.99386 31.7505 8.50041C31.7505 11.007 33.8335 12.9753 36.3 12.9753C37.6163 12.9753 38.7829 12.3045 39.5165 11.2422V12.7061H41.0163V0.0883789H39.5165V5.75812ZM39.5165 8.50041C39.5165 10.3003 38.2498 11.6292 36.3 11.6292C34.5667 11.6292 33.2503 10.368 33.2503 8.50041C33.2503 6.63273 34.5667 5.37112 36.3 5.37112C38.2498 5.37112 39.5165 6.70055 39.5165 8.50041ZM42.5143 12.7061V0.0883789H44.0147V12.7061H42.5143ZM53.8308 9.0897C53.8308 6.31351 52.4476 4.04218 49.565 4.04218C47.0485 4.04218 45.0987 6.07876 45.0987 8.50088C45.0987 10.9229 47.0485 12.9591 49.565 12.9591C51.5648 12.9591 53.0474 11.6802 53.6141 10.3847H51.9977C51.398 11.3099 50.5983 11.7814 49.565 11.7814C48.0652 11.7814 46.865 10.7211 46.632 9.0897H53.8308ZM49.565 5.21983C51.1645 5.21983 52.3312 6.53205 52.3312 7.91206H46.632C46.865 6.28212 48.0652 5.21983 49.565 5.21983Z" fill="#FCFCFC"/>
</g>
<defs>
<clipPath id="clip0_20_1364">
<rect width="54.2941" height="16.8235" fill="white" transform="translate(0.0532227 0.0883789)"/>
</clipPath>
</defs>
</svg>
