<svg width="62" height="19" viewBox="0 0 62 19" fill="none" xmlns="http://www.w3.org/2000/svg">
<g clip-path="url(#clip0_20_1326)">
<path d="M22.8382 6.85397L21.5176 4.51897H20.9825V6.85397H19.6975V0.95166H22.1334C22.5496 0.95166 22.9095 1.0196 23.2132 1.15547C23.5166 1.29159 23.7486 1.48968 23.909 1.75048C24.0694 2.01078 24.1497 2.32309 24.1497 2.68791C24.1497 3.11594 24.0326 3.47454 23.7977 3.7642C23.5624 4.05387 23.2278 4.25643 22.7939 4.3719L24.2659 6.85421L22.8382 6.85397ZM20.9825 2.0282V3.52953H21.9814C22.249 3.52953 22.4544 3.46433 22.5972 3.33443C22.7399 3.20428 22.8113 3.01441 22.8113 2.7658C22.8113 2.5055 22.7399 2.31737 22.5972 2.2019C22.4542 2.08593 22.2462 2.0282 21.9727 2.0282H20.9825Z" fill="white"/>
<path d="M27.9509 2.26158H29.1737V6.85317H27.9509V6.30644C27.7964 6.51473 27.5999 6.67848 27.3623 6.79718C27.1241 6.91539 26.8565 6.97461 26.559 6.97461C26.1722 6.97461 25.8274 6.87283 25.524 6.66653C25.2208 6.46173 24.9842 6.17505 24.8148 5.80774C24.6452 5.43993 24.5603 5.02485 24.5603 4.56198C24.5603 4.09314 24.6452 3.67531 24.8148 3.30776C24.9844 2.9402 25.2208 2.65377 25.524 2.44822C25.8274 2.24316 26.1722 2.14014 26.559 2.14014C26.8565 2.14014 27.1241 2.20135 27.3623 2.3223C27.5999 2.44374 27.7966 2.60898 27.9509 2.81727V2.26158ZM27.4692 5.74254C27.6296 5.63852 27.756 5.48622 27.8483 5.28714C27.9401 5.08706 27.9867 4.84542 27.9867 4.56198C27.9867 4.27853 27.9401 4.03665 27.8483 3.83707C27.756 3.63774 27.6296 3.48569 27.4692 3.38167C27.3085 3.2774 27.1241 3.22539 26.9159 3.22539C26.7079 3.22539 26.5219 3.2774 26.3582 3.38167C26.1945 3.48544 26.0683 3.63749 25.9793 3.83707C25.89 4.03665 25.8453 4.27853 25.8453 4.56198C25.8453 4.84542 25.89 5.08706 25.9793 5.28714C26.0686 5.48622 26.1947 5.63852 26.3582 5.74254C26.5219 5.84706 26.7079 5.89882 26.9159 5.89882C27.1241 5.89882 27.3085 5.84706 27.4692 5.74254Z" fill="white"/>
<path d="M30.32 1.42479C30.1864 1.29439 30.1191 1.12517 30.1191 0.916878C30.1191 0.708588 30.1862 0.539119 30.32 0.409217C30.4543 0.279067 30.6277 0.213867 30.8426 0.213867C31.0559 0.213867 31.2284 0.279067 31.3596 0.409217C31.4901 0.539119 31.5558 0.708837 31.5558 0.916878C31.5558 1.12492 31.4901 1.29439 31.3596 1.42479C31.2284 1.55519 31.0559 1.61989 30.8426 1.61989C30.6277 1.61989 30.4543 1.55519 30.32 1.42479ZM31.4394 6.85402H30.2174V2.26243H31.4394V6.85402Z" fill="white"/>
<path d="M34.0537 2.26246H35.3477V3.30417H34.0537V6.85406H32.8317V3.30392H32.0282V2.26246H32.8317V1.98474C32.8317 1.48131 32.9803 1.09634 33.2776 0.830313C33.5746 0.56404 33.9821 0.431152 34.4999 0.431152C34.6902 0.431152 34.8716 0.448323 35.0443 0.482914C35.2169 0.518002 35.3743 0.56404 35.517 0.622023L35.2052 1.53332C35.0443 1.46987 34.8683 1.43801 34.6782 1.43801C34.4579 1.43801 34.2993 1.48704 34.2011 1.58558C34.1029 1.68388 34.0537 1.83444 34.0537 2.03675V2.26246Z" fill="white"/>
<path d="M37.1772 2.26246H38.4706V3.30417H37.1772V6.85406H35.9544V3.30392H35.1511V2.26246H35.9544V1.98474C35.9544 1.48131 36.1033 1.09634 36.4008 0.830313C36.6983 0.56404 37.1056 0.431152 37.6231 0.431152C37.8134 0.431152 37.9948 0.448323 38.1674 0.482914C38.3399 0.518002 38.4974 0.56404 38.6404 0.622023L38.3276 1.53332C38.1674 1.46987 37.992 1.43801 37.8014 1.43801C37.5814 1.43801 37.4228 1.48704 37.324 1.58558C37.2263 1.68388 37.1772 1.83444 37.1772 2.03675V2.26246Z" fill="white"/>
<path d="M43.2266 4.97881H40.0409C40.0829 5.32596 40.1985 5.57755 40.3896 5.73408C40.5797 5.89036 40.859 5.968 41.2282 5.968C41.4832 5.968 41.7193 5.93192 41.9368 5.85975C42.1542 5.78708 42.3433 5.68456 42.5037 5.55142L43.0304 6.36691C42.7925 6.5645 42.5157 6.71431 42.2005 6.81833C41.8854 6.92235 41.5459 6.97461 41.1837 6.97461C40.6715 6.97461 40.2315 6.8793 39.8631 6.68843C39.494 6.49731 39.2131 6.22233 39.02 5.86348C38.8258 5.50513 38.7294 5.07984 38.7294 4.58786C38.7294 4.10185 38.8245 3.67357 39.0146 3.30353C39.2049 2.93298 39.4743 2.64655 39.8225 2.44374C40.1704 2.24142 40.5672 2.14014 41.0136 2.14014C41.4597 2.14014 41.8493 2.23843 42.1821 2.43528C42.5154 2.63212 42.7728 2.91258 42.9542 3.2774C43.1355 3.64172 43.2264 4.07049 43.2264 4.56198V4.97881H43.2266ZM40.0409 4.16257H41.9956C41.9652 3.82139 41.8672 3.56681 41.7012 3.39884C41.5341 3.23136 41.3082 3.14725 41.023 3.14725C40.452 3.14725 40.1246 3.48569 40.0409 4.16257Z" fill="white"/>
<path d="M44.0786 1.42479C43.9448 1.29439 43.8781 1.12492 43.8781 0.916878C43.8781 0.708837 43.9448 0.539119 44.0786 0.409217C44.2129 0.279067 44.3864 0.213867 44.6005 0.213867C44.8149 0.213867 44.9875 0.279067 45.118 0.409217C45.2487 0.539119 45.3145 0.708837 45.3145 0.916878C45.3145 1.12492 45.2487 1.29439 45.118 1.42479C44.9873 1.55494 44.8146 1.61989 44.6005 1.61989C44.3864 1.61989 44.2129 1.55519 44.0786 1.42479ZM45.1983 6.85402H43.976V2.26243H45.1983V6.85402Z" fill="white"/>
<path d="M46.7599 6.82356C46.4265 6.72178 46.1441 6.56425 45.9124 6.34999L46.4833 5.49966C46.8343 5.82367 47.2805 5.98592 47.8215 5.98592C48.0594 5.98592 48.2395 5.94959 48.361 5.87692C48.483 5.805 48.5439 5.69576 48.5439 5.55142C48.5439 5.42998 48.4892 5.32994 48.3794 5.25205C48.2684 5.17416 48.0679 5.1 47.7767 5.03057C47.402 4.94944 47.0942 4.85986 46.8532 4.76131C46.6125 4.66301 46.4178 4.52415 46.2692 4.34473C46.1206 4.16555 46.0459 3.93114 46.0459 3.64147C46.0459 3.33513 46.126 3.06886 46.2869 2.84315C46.4475 2.61744 46.6762 2.44374 46.9737 2.3223C47.2712 2.20111 47.6166 2.14014 48.0093 2.14014C48.3777 2.14014 48.7184 2.19215 49.0305 2.29667C49.3428 2.40019 49.6091 2.55373 49.8291 2.7563L49.2582 3.57229C49.0975 3.42746 48.9069 3.31771 48.6877 3.24206C48.4672 3.16691 48.2377 3.12933 48.0001 3.12933C47.7739 3.12933 47.6013 3.16417 47.4828 3.2336C47.3631 3.30328 47.3042 3.4068 47.3042 3.54591C47.3042 3.62729 47.3296 3.69497 47.38 3.74997C47.4306 3.80497 47.5186 3.85822 47.6432 3.91048C47.768 3.96274 47.9469 4.0145 48.1789 4.06676C48.5002 4.14191 48.7762 4.23175 49.0085 4.33577C49.2405 4.44004 49.4306 4.58736 49.5792 4.77823C49.7278 4.9691 49.8025 5.21248 49.8025 5.50737C49.8025 5.80226 49.725 6.06033 49.5705 6.27981C49.4158 6.5003 49.1899 6.67051 48.8926 6.79245C48.5951 6.91364 48.2377 6.97436 47.8218 6.97436C47.4465 6.97486 47.0924 6.92434 46.7599 6.82356Z" fill="white"/>
<path d="M54.7995 4.97881H51.6138C51.6555 5.32596 51.7712 5.57755 51.9615 5.73408C52.1521 5.89036 52.4317 5.968 52.8008 5.968C53.0561 5.968 53.2928 5.93192 53.5099 5.85975C53.7266 5.78708 53.9154 5.68456 54.0766 5.55142L54.6028 6.36691C54.3646 6.5645 54.0878 6.71431 53.7732 6.81833C53.4583 6.9226 53.1185 6.97461 52.7558 6.97461C52.2444 6.97461 51.8037 6.8793 51.435 6.68843C51.0661 6.49731 50.7853 6.22233 50.5924 5.86348C50.3987 5.50513 50.3018 5.07984 50.3018 4.58786C50.3018 4.10185 50.3969 3.67357 50.5872 3.30353C50.7776 2.93298 51.0472 2.64655 51.3954 2.44374C51.7425 2.24142 52.1401 2.14014 52.5859 2.14014C53.0321 2.14014 53.4217 2.23843 53.7545 2.43528C54.0876 2.63212 54.3452 2.91258 54.5266 3.2774C54.7084 3.64172 54.799 4.07049 54.799 4.56198V4.97881H54.7995ZM51.6136 4.16257H53.5678C53.5378 3.82139 53.4398 3.56681 53.2736 3.39884C53.1068 3.23136 52.8804 3.14725 52.5954 3.14725C52.0244 3.14725 51.697 3.48569 51.6136 4.16257Z" fill="white"/>
<path d="M59.0599 2.35291C59.3121 2.495 59.5073 2.70155 59.6442 2.97355C59.7808 3.24579 59.8494 3.57254 59.8494 3.95428V6.85317H58.6181V4.10185C58.6181 3.80696 58.5483 3.58548 58.4086 3.43816C58.2692 3.29059 58.0561 3.21668 57.7706 3.21668C57.5562 3.21668 57.3674 3.26321 57.2037 3.35554C57.04 3.44836 56.8965 3.58697 56.7714 3.77212V6.85342H55.5486V2.26183H56.7714V2.8001C56.9195 2.59156 57.1149 2.42955 57.3559 2.31409C57.5966 2.19812 57.8658 2.14014 58.163 2.14014C58.5081 2.14014 58.8067 2.21106 59.0599 2.35291Z" fill="white"/>
<path d="M23.9091 12.1596C24.0815 12.3995 24.168 12.6929 24.168 13.0403C24.168 13.5781 23.991 13.9935 23.6369 14.2856C23.2831 14.5783 22.782 14.7241 22.1335 14.7241H19.6979V8.82178H21.9196C22.5617 8.82178 23.0583 8.95591 23.41 9.22542C23.7605 9.49418 23.9362 9.87493 23.9362 10.3667C23.9362 10.9512 23.6773 11.3705 23.1601 11.6256C23.4865 11.7413 23.7367 11.9188 23.9091 12.1596ZM20.9826 9.88065V11.2613H21.8211C22.0944 11.2613 22.2954 11.2031 22.4233 11.0876C22.551 10.9716 22.6152 10.8007 22.6152 10.5752C22.6152 10.3266 22.5469 10.1484 22.41 10.0412C22.2729 9.9344 22.068 9.88065 21.7943 9.88065H20.9826ZM21.9815 13.665C22.2611 13.665 22.4709 13.6075 22.6106 13.4915C22.7505 13.376 22.8204 13.1911 22.8204 12.9363C22.8204 12.6992 22.7533 12.5222 22.6195 12.4065C22.486 12.2915 22.2642 12.2333 21.9549 12.2333H20.9826V13.6652L21.9815 13.665Z" fill="white"/>
<path d="M28.0308 10.1322H29.2534V14.7245H28.0308V14.177C27.8763 14.3853 27.6799 14.5491 27.4422 14.6678C27.2043 14.786 26.9362 14.8455 26.6387 14.8455C26.2522 14.8455 25.9073 14.7427 25.6039 14.5374C25.3005 14.3323 25.0639 14.0454 24.8945 13.6778C24.7249 13.3105 24.6403 12.8959 24.6403 12.4326C24.6403 11.964 24.7252 11.5462 24.8945 11.1784C25.0641 10.8108 25.3005 10.5244 25.6039 10.3191C25.9073 10.1138 26.2522 10.0112 26.6387 10.0112C26.9362 10.0112 27.204 10.0715 27.4422 10.1936C27.6799 10.3148 27.8761 10.4798 28.0308 10.6879V10.1322ZM27.5494 13.6129C27.71 13.5086 27.8362 13.3571 27.9285 13.1572C28.0204 12.9574 28.0669 12.716 28.0669 12.4326C28.0669 12.1491 28.0204 11.9072 27.9285 11.7074C27.8362 11.5076 27.71 11.356 27.5494 11.252C27.3882 11.1477 27.2043 11.0962 26.9961 11.0962C26.7878 11.0962 26.6019 11.1477 26.4384 11.252C26.2747 11.356 26.1485 11.5076 26.0595 11.7074C25.97 11.9072 25.9255 12.1491 25.9255 12.4326C25.9255 12.716 25.97 12.9574 26.0595 13.1572C26.1488 13.3571 26.2747 13.5086 26.4384 13.6129C26.6019 13.7179 26.7878 13.7694 26.9961 13.7694C27.2043 13.7694 27.3882 13.7179 27.5494 13.6129Z" fill="white"/>
<path d="M33.8086 10.2235C34.0613 10.3649 34.2562 10.5717 34.3926 10.8437C34.5297 11.1161 34.598 11.4424 34.598 11.8246V14.7235H33.367V11.9725C33.367 11.6773 33.2969 11.4556 33.1567 11.3085C33.0173 11.1609 32.8047 11.0865 32.5192 11.0865C32.3049 11.0865 32.1161 11.1333 31.9526 11.2256C31.7889 11.3187 31.6451 11.4571 31.5205 11.6422V14.7238H30.2975V10.1319H31.5205V10.67C31.6687 10.4622 31.8633 10.2997 32.1046 10.1844C32.3455 10.0682 32.6142 10.0107 32.9122 10.0107C33.2573 10.0107 33.5561 10.0812 33.8086 10.2235Z" fill="white"/>
<path d="M37.953 12.2756L39.845 14.7233H38.3809L36.7662 12.6402V14.7233H35.5439V8.47363H36.7662V11.9974L38.3009 10.1315H39.7554L37.953 12.2756Z" fill="white"/>
<path d="M15.1288 0.95166H0.970947V14.724H15.1288V0.95166Z" fill="#FDE500"/>
<path fill-rule="evenodd" clip-rule="evenodd" d="M11.2085 6.85804L13.0128 5.10337L13.4955 5.57296L13.4986 5.56972C13.4986 5.26861 13.4072 4.23214 12.5513 3.42013C11.5925 2.51082 10.6332 3.04262 10.3027 3.36364L8.56515 5.0541L8.99569 5.47292L8.04994 6.39293L7.10444 5.47317L7.53498 5.05435L5.79722 3.36389C5.46671 3.04262 4.5074 2.51107 3.54886 3.42038C2.6929 4.23214 2.60132 5.26886 2.60132 5.56997L2.60439 5.57321L3.08711 5.10362L4.89138 6.85829L5.38818 6.37501V5.21884L5.8993 5.7163V7.11486L6.60381 7.7997L2.95025 11.3536L4.39663 12.7608L8.04994 9.20622L11.7035 12.7608L13.1496 11.3536L9.49632 7.79945L10.2006 7.11461V5.71605L10.7117 5.21859V6.37476L11.2085 6.85804Z" fill="white"/>
</g>
<defs>
<clipPath id="clip0_20_1326">
<rect width="61.219" height="18.572" fill="white" transform="translate(0.657715 0.213867)"/>
</clipPath>
</defs>
</svg>
