<svg width="44" height="29" viewBox="0 0 44 29" fill="none" xmlns="http://www.w3.org/2000/svg">
<path d="M3.17965 0.735352H41.7208C42.9372 0.735352 43.9232 1.7214 43.9232 2.9377V26.0624C43.9232 27.2788 42.9372 28.2648 41.7208 28.2648H3.17965C1.96334 28.2648 0.977295 27.2788 0.977295 26.0624V2.9377C0.977295 1.7214 1.96334 0.735352 3.17965 0.735352Z" fill="#0E4595"/>
<path d="M17.1207 19.9445L18.9575 9.16615H21.8955L20.0573 19.9445H17.1207ZM30.6712 9.3985C30.0893 9.18013 29.1771 8.9458 28.0382 8.9458C25.1352 8.9458 23.0903 10.4076 23.073 12.5028C23.0565 14.0516 24.5328 14.9156 25.6471 15.4311C26.7907 15.9594 27.1751 16.2963 27.1697 16.7681C27.1625 17.4906 26.2565 17.8206 25.4121 17.8206C24.2362 17.8206 23.6115 17.6573 22.6467 17.2549L22.2681 17.0836L21.8558 19.4965C22.542 19.7973 23.8109 20.058 25.1283 20.0714C28.2166 20.0714 30.2213 18.6264 30.2442 16.389C30.2551 15.1629 29.4725 14.2298 27.7775 13.4605C26.7506 12.962 26.1218 12.6292 26.1284 12.1244C26.1284 11.6763 26.6607 11.1972 27.8109 11.1972C28.7716 11.1823 29.4676 11.3918 30.0098 11.6102L30.273 11.7346L30.6712 9.3985ZM38.2313 9.16598H35.9612C35.2579 9.16598 34.7316 9.35797 34.4228 10.0598L30.0597 19.9374H33.1447C33.1447 19.9374 33.649 18.6092 33.7631 18.3177C34.1003 18.3177 37.0972 18.3223 37.5257 18.3223C37.6136 18.6996 37.883 19.9374 37.883 19.9374H40.6092L38.2313 9.16565V9.16598ZM34.6295 16.126C34.8724 15.505 35.8001 13.113 35.8001 13.113C35.7827 13.1417 36.0412 12.489 36.1895 12.0843L36.388 13.0136C36.388 13.0136 36.9507 15.5865 37.0682 16.126H34.6295ZM14.6266 9.16598L11.7504 16.5163L11.4439 15.0226C10.9084 13.3007 9.24013 11.4352 7.37512 10.5013L10.0051 19.9274L13.1135 19.9238L17.7386 9.16587H14.6266" fill="white"/>
<path d="M9.06631 9.16087H4.329L4.2915 9.38512C7.97703 10.2773 10.4157 12.4333 11.4282 15.0237L10.3981 10.0706C10.2202 9.38815 9.7045 9.18449 9.06642 9.16064" fill="#F2AE14"/>
</svg>
