<svg width="166" height="18" viewBox="0 0 166 18" fill="none" xmlns="http://www.w3.org/2000/svg">
<mask id="mask0_20_32" style="mask-type:luminance" maskUnits="userSpaceOnUse" x="0" y="0" width="166" height="18">
<path d="M165.46 0.58374V17.3855H1.45996V0.58374H165.46Z" fill="white" stroke="white"/>
</mask>
<g mask="url(#mask0_20_32)">
<mask id="path-2-inside-1_20_32" fill="white">
<path d="M15.1355 6.69122H1.21671V7.11971H15.1355V6.69122Z"/>
</mask>
<path d="M15.1355 6.69122H1.21671V7.11971H15.1355V6.69122Z" fill="white"/>
<path d="M15.1355 6.69122H16.1355V5.69122H15.1355V6.69122ZM1.21671 6.69122V5.69122H0.216705V6.69122H1.21671ZM1.21671 7.11971H0.216705V8.11971H1.21671V7.11971ZM15.1355 7.11971V8.11971H16.1355V7.11971H15.1355ZM15.1355 6.69122V5.69122H1.21671V6.69122V7.69122H15.1355V6.69122ZM1.21671 6.69122H0.216705V7.11971H1.21671H2.21671V6.69122H1.21671ZM1.21671 7.11971V8.11971H15.1355V7.11971V6.11971H1.21671V7.11971ZM15.1355 7.11971H16.1355V6.69122H15.1355H14.1355V7.11971H15.1355Z" fill="white" mask="url(#path-2-inside-1_20_32)"/>
<path d="M6.54102 13.4441L5.90527 14.2527H14.9219V17.1326H1.45996V14.74L5.13086 10.074L9.21191 10.0457L6.54102 13.4441Z" fill="white" stroke="white"/>
<path d="M14.6444 0.836945V3.22659L12.2791 6.23245L8.21078 6.24612L9.56528 4.52542L10.202 3.71683H1.73618V0.836945H14.6444Z" fill="white" stroke="white"/>
<path d="M29.9708 0.925476V3.66669H21.339V7.55243H28.9435V10.1716H21.339V14.3024H30.2882V17.0417H17.546V0.925476H29.9708Z" fill="white" stroke="white"/>
<path d="M40.3241 0.925476C41.6477 0.925476 42.7908 1.11272 43.7626 1.4743L44.1689 1.64032C45.2218 2.10931 46.0197 2.77833 46.5819 3.64423C47.1415 4.50604 47.4305 5.53775 47.4306 6.75848C47.4306 7.88739 47.177 8.8501 46.6855 9.66083L46.5839 9.82098C46.0562 10.6179 45.3189 11.2459 44.3593 11.7028L43.83 11.9538L44.161 12.4372L47.3232 17.0436H43.3515L40.3974 12.7136L40.248 12.4948H36.8407V17.0417H32.9999V0.925476H40.3241ZM36.8427 9.7536H40.0321C41.0348 9.7536 41.8852 9.55073 42.5038 9.06805L42.6249 8.96747C43.2489 8.4145 43.539 7.65599 43.539 6.75848C43.5389 5.90717 43.2859 5.17843 42.7382 4.63348L42.6249 4.52704C41.9984 3.9719 41.1017 3.74091 40.0321 3.74091H36.8427V9.7536Z" fill="white" stroke="white"/>
<path d="M59.6633 0.58374C60.8286 0.583771 61.8976 0.744325 62.8732 1.06323L63.2853 1.20972C64.2398 1.57594 65.0802 2.07183 65.8098 2.69897L66.1154 2.97632C66.8159 3.64314 67.3828 4.40487 67.8185 5.26636L67.9973 5.64233C68.4458 6.64899 68.6749 7.76112 68.675 8.98413C68.675 10.2072 68.4464 11.3241 67.9973 12.3386C67.5989 13.2349 67.0703 14.0262 66.4094 14.7136L66.1174 15.0017C65.4192 15.659 64.6108 16.1887 63.6877 16.5916L63.2853 16.7566C62.2004 17.1728 60.9944 17.3835 59.6633 17.3835C58.5117 17.3835 57.4476 17.2227 56.466 16.9031L56.05 16.7556H56.049C55.0867 16.3907 54.2391 15.8938 53.5031 15.2664L53.1945 14.99L52.8996 14.698C52.3279 14.1038 51.8592 13.4396 51.4914 12.7029L51.3156 12.3279H51.3146C50.871 11.3231 50.6476 10.2091 50.6476 8.98413C50.6477 7.91292 50.8198 6.9277 51.1594 6.02319L51.3156 5.64136C51.7054 4.75369 52.234 3.96494 52.9006 3.27124L53.1945 2.97925C53.9005 2.31422 54.7153 1.78038 55.6447 1.37671L56.05 1.21167C57.1453 0.794662 58.3487 0.58374 59.6633 0.58374ZM59.6633 3.59644C59.0414 3.59644 58.4493 3.69134 57.8908 3.8855L57.6525 3.97437C57.1041 4.1969 56.6167 4.50733 56.1916 4.90503L56.0129 5.08081L56.0119 5.08179C55.5507 5.56278 55.1889 6.13194 54.9308 6.78394C54.6688 7.44607 54.5413 8.18255 54.5412 8.98413C54.5412 9.77003 54.6672 10.5004 54.9299 11.1697V11.1707C55.1552 11.7484 55.459 12.2604 55.843 12.7029L56.0129 12.8884C56.4202 13.3114 56.8907 13.6467 57.4221 13.8943L57.6525 13.9949C58.2799 14.2494 58.9525 14.3728 59.6633 14.3728C60.2852 14.3728 60.8771 14.278 61.4357 14.0837L61.673 13.9949C62.2217 13.7723 62.7097 13.4621 63.1349 13.0642L63.3127 12.8884L63.3137 12.8875C63.7187 12.4651 64.0444 11.973 64.2932 11.4148L64.3957 11.1716V11.1707C64.6565 10.5037 64.7844 9.77136 64.7844 8.98413C64.7843 8.18253 64.6568 7.44609 64.3947 6.78394C64.169 6.21384 63.8652 5.70633 63.4816 5.26538L63.3127 5.08081L63.3117 5.07983L63.134 4.90503C62.7701 4.56541 62.3602 4.28759 61.9045 4.07495L61.673 3.97437L61.6721 3.97339L61.4348 3.8855C60.8774 3.69266 60.286 3.59647 59.6633 3.59644Z" fill="white" stroke="white"/>
<path d="M77.7584 0.778503C78.6726 0.778503 79.5811 0.906534 80.483 1.16327C81.2287 1.37552 81.8795 1.65273 82.4381 1.98846L82.2184 2.50702C81.6925 2.2045 81.1455 1.96111 80.5768 1.7785L80.2506 1.68085H80.2496C79.3887 1.44385 78.549 1.3205 77.7321 1.3205C76.7979 1.3205 75.9779 1.43134 75.2867 1.6662L74.9987 1.7746C74.3572 2.04003 73.8327 2.39898 73.4528 2.86151L73.2985 3.06561L73.2975 3.06757C72.9222 3.61909 72.7351 4.24352 72.735 4.92596C72.735 5.69469 72.9603 6.36331 73.4449 6.88007V6.88104C73.891 7.35808 74.4672 7.71416 75.1549 7.96405V7.96307C75.6405 8.14003 76.1597 8.30254 76.7125 8.4494L77.276 8.591C77.648 8.67961 78.0189 8.77166 78.3883 8.86835L79.4928 9.17108C80.0258 9.32375 80.5247 9.50858 80.9918 9.72479L81.4489 9.95135C82.0096 10.2508 82.4535 10.6436 82.7897 11.1301V11.1291C83.0982 11.5761 83.275 12.1941 83.275 13.0217C83.275 13.6646 83.122 14.2628 82.8121 14.8234L82.6696 15.0617C82.3242 15.5985 81.81 16.0592 81.1041 16.4348L80.7897 16.59C79.9383 16.982 78.8159 17.1926 77.3922 17.1926C76.1763 17.1926 75.0132 16.995 73.9039 16.5988C72.9444 16.2561 72.1996 15.8375 71.649 15.3586L71.899 14.8674C72.3857 15.2443 72.9558 15.5738 73.6041 15.8576L73.9938 16.0187H73.9948C75.0724 16.4404 76.2072 16.6525 77.3922 16.6525C78.3653 16.6525 79.2109 16.5465 79.9137 16.3185L80.2067 16.2131C80.9461 15.9188 81.5355 15.5038 81.9235 14.9445L81.9225 14.9435C82.2972 14.4051 82.4889 13.8 82.4889 13.1437C82.4889 12.4703 82.3181 11.8734 81.9498 11.3879L81.7789 11.1867C81.3908 10.7735 80.9067 10.4469 80.3385 10.1984L80.0905 10.0969H80.0895C79.6079 9.91386 79.0901 9.74704 78.5377 9.59784L77.9742 9.45428C77.6013 9.36457 77.2286 9.27209 76.8561 9.17694L75.7389 8.883H75.7379C75.0224 8.68891 74.37 8.42837 73.7799 8.10663H73.7809C73.2893 7.83716 72.8872 7.49798 72.5699 7.0871L72.4391 6.90643L72.4381 6.90546L72.3278 6.72675C72.0854 6.2894 71.9498 5.71487 71.9498 4.97382C71.9499 4.31369 72.1019 3.70575 72.4059 3.14374L72.5455 2.90643V2.90546C72.8835 2.36982 73.3897 1.91026 74.0885 1.53534L74.4 1.38007C75.24 0.988917 76.3511 0.778521 77.7584 0.778503Z" fill="white" stroke="white"/>
<path d="M91.9274 11.489L91.8542 11.3688L85.4724 0.925476H86.2321L91.9557 10.2888L92.3825 10.986L92.8083 10.2878L98.53 0.925476H99.1677L92.7858 11.3688L92.7126 11.489V17.0417H91.9274V11.489Z" fill="white" stroke="white"/>
<path d="M103.757 0.925476L114.634 14.6198L115.524 15.7419V0.925476H116.309V17.0417H115.56L104.706 3.35126L103.814 2.22626V17.0417H103.005V0.925476H103.757Z" fill="white" stroke="white"/>
<path d="M133.034 0.925476V1.49091H127.02V17.0417H126.21V1.49091H120.196V0.925476H133.034Z" fill="white" stroke="white"/>
<path d="M142.115 0.925476L149.484 17.0417H148.678L146.764 12.7663L146.632 12.4704H136.432L136.299 12.7663L134.385 17.0417H133.605L140.972 0.925476H142.115ZM141.075 2.09247L136.954 11.2985L136.639 12.0026H146.422L146.108 11.2985L141.988 2.09247L141.531 1.07294L141.075 2.09247Z" fill="white" stroke="white"/>
<path d="M152.993 0.925476L157.998 7.71747L158.402 8.26532L158.804 7.71747L163.792 0.925476H164.509L159.032 8.39325L158.815 8.69012L159.033 8.98602L164.97 17.0417H164.111L158.722 9.71844L158.318 9.16864L157.915 9.7204L152.576 17.0417H151.743L157.658 9.04657L157.876 8.75067L157.66 8.4538L152.152 0.925476H152.993Z" fill="white" stroke="white"/>
</g>
</svg>
